<svg xmlns="http://www.w3.org/2000/svg" xmlns:xlink="http://www.w3.org/1999/xlink" contentStyleType="text/css" data-diagram-type="DESCRIPTION" height="588px" preserveAspectRatio="none" style="width:1406px;height:588px;background:#FFFFFF;" version="1.1" viewBox="0 0 1406 588" width="1406px" zoomAndPan="magnify"><?plantuml 1.2026.5?><defs/><g><!--cluster ?????????? ????????????--><g class="cluster" data-qualified-name=".......... ............" data-source-line="1" id="ent0001"><polygon fill="none" points="379,16,389,6,662,6,662,107.6,652,117.6,379,117.6,379,16" style="stroke:#181818;stroke-width:1;stroke-linejoin:miter;stroke-miterlimit:10;"/><line style="stroke:#181818;stroke-width:1;" x1="652" x2="662" y1="16" y2="6"/><line style="stroke:#181818;stroke-width:1;" x1="379" x2="652" y1="16" y2="16"/><line style="stroke:#181818;stroke-width:1;" x1="652" x2="652" y1="16" y2="117.6"/><text fill="#000000" font-family="sans-serif" font-size="14" font-weight="700" lengthAdjust="spacing" textLength="207.7305" x="412.6348" y="31.9951">&#1059;&#1089;&#1090;&#1088;&#1086;&#1081;&#1089;&#1090;&#1074;&#1086; &#1087;&#1086;&#1083;&#1100;&#1079;&#1086;&#1074;&#1072;&#1090;&#1077;&#1083;&#1103;</text></g><!--cluster ?????? (Docker Compose)--><g class="cluster" data-qualified-name="...... .Docker Compose." data-source-line="5" id="ent0003"><polygon fill="none" points="16,191.6,26,181.6,638,181.6,638,553.08,628,563.08,16,563.08,16,191.6" style="stroke:#181818;stroke-width:1;stroke-linejoin:miter;stroke-miterlimit:10;"/><line style="stroke:#181818;stroke-width:1;" x1="628" x2="638" y1="191.6" y2="181.6"/><line style="stroke:#181818;stroke-width:1;" x1="16" x2="628" y1="191.6" y2="191.6"/><line style="stroke:#181818;stroke-width:1;" x1="628" x2="628" y1="191.6" y2="563.08"/><text fill="#000000" font-family="sans-serif" font-size="14" font-weight="700" lengthAdjust="spacing" textLength="207.9082" x="219.0459" y="207.5951">&#1057;&#1077;&#1088;&#1074;&#1077;&#1088; (Docker Compose)</text></g><!--cluster ????????? frontend--><g class="cluster" data-qualified-name="...... .Docker Compose........... frontend" data-source-line="6" id="ent0004"><polygon fill="none" points="40,239.6,50,229.6,356,229.6,356,331.19,346,341.19,40,341.19,40,239.6" style="stroke:#181818;stroke-width:1;stroke-linejoin:miter;stroke-miterlimit:10;"/><line style="stroke:#181818;stroke-width:1;" x1="346" x2="356" y1="239.6" y2="229.6"/><line style="stroke:#181818;stroke-width:1;" x1="40" x2="346" y1="239.6" y2="239.6"/><line style="stroke:#181818;stroke-width:1;" x1="346" x2="346" y1="239.6" y2="341.19"/><text fill="#000000" font-family="sans-serif" font-size="14" font-weight="700" lengthAdjust="spacing" textLength="160.9727" x="113.5137" y="255.5951">&#1050;&#1086;&#1085;&#1090;&#1077;&#1081;&#1085;&#1077;&#1088; frontend</text></g><!--cluster ????????? backend--><g class="cluster" data-qualified-name="...... .Docker Compose........... backend" data-source-line="9" id="ent0006"><polygon fill="none" points="380,239.6,390,229.6,614,229.6,614,331.19,604,341.19,380,341.19,380,239.6" style="stroke:#181818;stroke-width:1;stroke-linejoin:miter;stroke-miterlimit:10;"/><line style="stroke:#181818;stroke-width:1;" x1="604" x2="614" y1="239.6" y2="229.6"/><line style="stroke:#181818;stroke-width:1;" x1="380" x2="604" y1="239.6" y2="239.6"/><line style="stroke:#181818;stroke-width:1;" x1="604" x2="604" y1="239.6" y2="341.19"/><text fill="#000000" font-family="sans-serif" font-size="14" font-weight="700" lengthAdjust="spacing" textLength="158.7783" x="413.6108" y="255.5951">&#1050;&#1086;&#1085;&#1090;&#1077;&#1081;&#1085;&#1077;&#1088; backend</text></g><!--cluster ????????? db--><g class="cluster" data-qualified-name="...... .Docker Compose........... db" data-source-line="12" id="ent0008"><polygon fill="none" points="420,415.19,430,405.19,614,405.19,614,529.08,604,539.08,420,539.08,420,415.19" style="stroke:#181818;stroke-width:1;stroke-linejoin:miter;stroke-miterlimit:10;"/><line style="stroke:#181818;stroke-width:1;" x1="604" x2="614" y1="415.19" y2="405.19"/><line style="stroke:#181818;stroke-width:1;" x1="420" x2="604" y1="415.19" y2="415.19"/><line style="stroke:#181818;stroke-width:1;" x1="604" x2="604" y1="415.19" y2="539.08"/><text fill="#000000" font-family="sans-serif" font-size="14" font-weight="700" lengthAdjust="spacing" textLength="112.2598" x="456.8701" y="431.1851">&#1050;&#1086;&#1085;&#1090;&#1077;&#1081;&#1085;&#1077;&#1088; db</text></g><!--cluster ??????? ???????--><g class="cluster" data-qualified-name="....... ......." data-source-line="17" id="ent0010"><path d="M672.2884,438.0617 C690.3836,416.3152 709.1348,419.1335 724.7168,441.0775 C738.706,413.0949 759.1386,413.2428 776.4232,437.8367 C792.1054,413.7868 812.7804,412.6234 828.5421,437.7524 C840.3793,413.5131 864.1082,412.2263 876.4283,437.2833 C887.3805,411.4589 912.0424,412.978 925.5153,434.6797 C942.0787,412.5537 959.0498,414.0318 973.9003,436.5368 C991.0056,409.0991 1012.9774,414.594 1027.4136,439.2772 C1043.848,417.0986 1061.9124,411.2927 1079.4606,438.0937 C1094.8334,414.0337 1113.7336,415.7466 1129.2554,437.9332 C1143.0845,413.6572 1161.3812,415.685 1174.3785,438.7264 C1187.2479,412.5495 1213.4864,411.2362 1229.0283,435.851 C1248.4266,412.5014 1265.2819,415.5831 1278.1669,442.2499 C1289.7161,422.0897 1308.1846,414.951 1323.6407,438.1528 C1337.6223,417.8947 1359.4068,411.1182 1373.3758,438.1661 C1384.1301,441.8187 1384.6819,448.3892 1378.9681,456.9458 C1389.8639,461.6369 1388.9889,469.4776 1381.3345,476.4225 C1390.1296,483.2797 1390.1316,489.7303 1379.9345,495.1691 C1391.7425,504.1629 1391.9902,513.8693 1377.8448,520.7423 C1359.6567,542.3687 1344.6801,541.179 1328.4718,518.5345 C1315.1243,541.0141 1294.0089,544.8841 1276.5744,523.3541 C1257.0469,548.7172 1239.1226,550.2113 1222.6986,520.3276 C1211.0688,544.3703 1193.6335,545.4345 1178.0595,524.2178 C1166.1402,546.0383 1142.1624,546.3736 1129.2876,525.3044 C1116.8494,550.9087 1094.6474,549.9364 1078.7556,529.0589 C1065.4752,553.9805 1042.5383,550.721 1030.0566,528.2383 C1013.412,552.5802 989.8741,557.907 972.4209,529.1153 C959.535,549.9514 937.9142,547.4012 928.1943,525.8147 C907.0555,549.3746 888.5743,552.1309 872.8551,520.3912 C859.8904,543.1566 839.9175,541.5724 827.9958,519.351 C814.0526,542.7109 797.2679,548.4364 779.3022,523.3982 C760.4326,551.6036 732.5702,547.0331 722.5644,515.0436 C706.0699,538.451 689.2386,541.4201 673.1856,514.6095 C661.9775,509.3521 660.7359,502.0979 670.8112,494.3466 C661.8859,489.305 661.7365,482.8302 669.7566,476.7717 C660.5136,472.1421 662.6756,464.5744 669.4519,459.6596 C660.27,452.7486 661.4367,442.3417 672.2884,438.0617" fill="none" style="stroke:#181818;stroke-width:1;"/><text fill="#000000" font-family="sans-serif" font-size="14" font-weight="700" lengthAdjust="spacing" textLength="146.002" x="948.499" y="455.4851">&#1042;&#1085;&#1077;&#1096;&#1085;&#1080;&#1077; &#1089;&#1077;&#1088;&#1074;&#1080;&#1089;&#1099;</text></g><!--entity browser--><g class="entity" data-qualified-name=".......... .............browser" data-source-line="2" id="ent0002"><rect fill="#F1F1F1" height="55.5938" rx="2.5" ry="2.5" style="stroke:#181818;stroke-width:0.5;" width="121.2324" x="459.38" y="46"/><polygon fill="#F1F1F1" points="563.6124,51,563.6124,65,575.6124,65,575.6124,57,569.6124,51,563.6124,51" style="stroke:#181818;stroke-width:0.5;stroke-linejoin:miter;stroke-miterlimit:10;"/><line style="stroke:#181818;stroke-width:0.5;" x1="569.6124" x2="569.6124" y1="51" y2="57"/><line style="stroke:#181818;stroke-width:0.5;" x1="575.6124" x2="569.6124" y1="57" y2="57"/><text fill="#000000" font-family="sans-serif" font-size="14" lengthAdjust="spacing" textLength="91.2324" x="469.38" y="71.9951">&#1042;&#1077;&#1073;-&#1073;&#1088;&#1072;&#1091;&#1079;&#1077;&#1088;</text><text fill="#000000" font-family="sans-serif" font-size="14" lengthAdjust="spacing" textLength="82.7012" x="469.38" y="88.292">(SPA Vue 3)</text></g><!--entity fe--><g class="entity" data-qualified-name="...... .Docker Compose........... frontend.fe" data-source-line="7" id="ent0005"><rect fill="#F1F1F1" height="55.5938" rx="2.5" ry="2.5" style="stroke:#181818;stroke-width:0.5;" width="283.3193" x="56.34" y="269.6"/><polygon fill="#F1F1F1" points="322.6593,274.6,322.6593,288.6,334.6593,288.6,334.6593,280.6,328.6593,274.6,322.6593,274.6" style="stroke:#181818;stroke-width:0.5;stroke-linejoin:miter;stroke-miterlimit:10;"/><line style="stroke:#181818;stroke-width:0.5;" x1="328.6593" x2="328.6593" y1="274.6" y2="280.6"/><line style="stroke:#181818;stroke-width:0.5;" x1="334.6593" x2="328.6593" y1="280.6" y2="280.6"/><text fill="#000000" font-family="sans-serif" font-size="14" lengthAdjust="spacing" textLength="107.0029" x="66.34" y="295.5951">Node 22 + Vite</text><text fill="#000000" font-family="sans-serif" font-size="14" lengthAdjust="spacing" textLength="253.3193" x="66.34" y="311.892">(dev-&#1089;&#1077;&#1088;&#1074;&#1077;&#1088; / &#1089;&#1090;&#1072;&#1090;&#1080;&#1095;&#1077;&#1089;&#1082;&#1072;&#1103; &#1089;&#1073;&#1086;&#1088;&#1082;&#1072;)</text></g><!--entity be--><g class="entity" data-qualified-name="...... .Docker Compose........... backend.be" data-source-line="10" id="ent0007"><rect fill="#F1F1F1" height="55.5938" rx="2.5" ry="2.5" style="stroke:#181818;stroke-width:0.5;" width="155.5078" x="442.25" y="269.6"/><polygon fill="#F1F1F1" points="580.7578,274.6,580.7578,288.6,592.7578,288.6,592.7578,280.6,586.7578,274.6,580.7578,274.6" style="stroke:#181818;stroke-width:0.5;stroke-linejoin:miter;stroke-miterlimit:10;"/><line style="stroke:#181818;stroke-width:0.5;" x1="586.7578" x2="586.7578" y1="274.6" y2="280.6"/><line style="stroke:#181818;stroke-width:0.5;" x1="592.7578" x2="586.7578" y1="280.6" y2="280.6"/><text fill="#000000" font-family="sans-serif" font-size="14" lengthAdjust="spacing" textLength="125.5078" x="452.25" y="295.5951">Uvicorn + FastAPI</text><text fill="#000000" font-family="sans-serif" font-size="14" lengthAdjust="spacing" textLength="107.7754" x="452.25" y="311.892">(app.main:app)</text></g><!--entity pg--><g class="entity" data-qualified-name="...... .Docker Compose........... db.pg" data-source-line="13" id="ent0009"><path d="M436.01,455.19 C436.01,445.19 516.9978,445.19 516.9978,445.19 C516.9978,445.19 597.9856,445.19 597.9856,455.19 L597.9856,513.0806 C597.9856,523.0806 516.9978,523.0806 516.9978,523.0806 C516.9978,523.0806 436.01,523.0806 436.01,513.0806 L436.01,455.19" fill="#F1F1F1" style="stroke:#181818;stroke-width:0.5;"/><path d="M436.01,455.19 C436.01,465.19 516.9978,465.19 516.9978,465.19 C516.9978,465.19 597.9856,465.19 597.9856,455.19" fill="none" style="stroke:#181818;stroke-width:0.5;"/><text fill="#000000" font-family="sans-serif" font-size="14" lengthAdjust="spacing" textLength="103.0176" x="446.01" y="482.1851">PostgreSQL 15</text><text fill="#000000" font-family="sans-serif" font-size="14" lengthAdjust="spacing" textLength="69.8359" x="446.01" y="498.482">+ PostGIS</text><text fill="#000000" font-family="sans-serif" font-size="14" lengthAdjust="spacing" textLength="141.9756" x="446.01" y="514.7789">(&#1090;&#1086;&#1084; postgres_data)</text></g><!--entity otm--><g class="entity" data-qualified-name="....... ........otm" data-source-line="18" id="ent0011"><rect fill="#F1F1F1" height="39.2969" rx="2.5" ry="2.5" style="stroke:#181818;stroke-width:0.5;" width="150.6201" x="677.69" y="464.49"/><polygon fill="#F1F1F1" points="811.3101,469.49,811.3101,483.49,823.3101,483.49,823.3101,475.49,817.3101,469.49,811.3101,469.49" style="stroke:#181818;stroke-width:0.5;stroke-linejoin:miter;stroke-miterlimit:10;"/><line style="stroke:#181818;stroke-width:0.5;" x1="817.3101" x2="817.3101" y1="469.49" y2="475.49"/><line style="stroke:#181818;stroke-width:0.5;" x1="823.3101" x2="817.3101" y1="475.49" y2="475.49"/><text fill="#000000" font-family="sans-serif" font-size="14" lengthAdjust="spacing" textLength="120.6201" x="687.69" y="490.4851">OpenTripMap API</text></g><!--entity osrm--><g class="entity" data-qualified-name="....... ........osrm" data-source-line="19" id="ent0012"><rect fill="#F1F1F1" height="39.2969" rx="2.5" ry="2.5" style="stroke:#181818;stroke-width:0.5;" width="98.3115" x="862.84" y="464.49"/><polygon fill="#F1F1F1" points="944.1515,469.49,944.1515,483.49,956.1515,483.49,956.1515,475.49,950.1515,469.49,944.1515,469.49" style="stroke:#181818;stroke-width:0.5;stroke-linejoin:miter;stroke-miterlimit:10;"/><line style="stroke:#181818;stroke-width:0.5;" x1="950.1515" x2="950.1515" y1="469.49" y2="475.49"/><line style="stroke:#181818;stroke-width:0.5;" x1="956.1515" x2="950.1515" y1="475.49" y2="475.49"/><text fill="#000000" font-family="sans-serif" font-size="14" lengthAdjust="spacing" textLength="68.3115" x="872.84" y="490.4851">OSRM API</text></g><!--entity osm--><g class="entity" data-qualified-name="....... ........osm" data-source-line="20" id="ent0013"><rect fill="#F1F1F1" height="39.2969" rx="2.5" ry="2.5" style="stroke:#181818;stroke-width:0.5;" width="166.3838" x="995.81" y="464.49"/><polygon fill="#F1F1F1" points="1145.1938,469.49,1145.1938,483.49,1157.1938,483.49,1157.1938,475.49,1151.1938,469.49,1145.1938,469.49" style="stroke:#181818;stroke-width:0.5;stroke-linejoin:miter;stroke-miterlimit:10;"/><line style="stroke:#181818;stroke-width:0.5;" x1="1151.1938" x2="1151.1938" y1="469.49" y2="475.49"/><line style="stroke:#181818;stroke-width:0.5;" x1="1157.1938" x2="1151.1938" y1="475.49" y2="475.49"/><text fill="#000000" font-family="sans-serif" font-size="14" lengthAdjust="spacing" textLength="136.3838" x="1005.81" y="490.4851">OpenStreetMap API</text></g><!--entity ya--><g class="entity" data-qualified-name="....... ........ya" data-source-line="21" id="ent0014"><rect fill="#F1F1F1" height="39.2969" rx="2.5" ry="2.5" style="stroke:#181818;stroke-width:0.5;" width="167.1426" x="1197.43" y="464.49"/><polygon fill="#F1F1F1" points="1347.5726,469.49,1347.5726,483.49,1359.5726,483.49,1359.5726,475.49,1353.5726,469.49,1347.5726,469.49" style="stroke:#181818;stroke-width:0.5;stroke-linejoin:miter;stroke-miterlimit:10;"/><line style="stroke:#181818;stroke-width:0.5;" x1="1353.5726" x2="1353.5726" y1="469.49" y2="475.49"/><line style="stroke:#181818;stroke-width:0.5;" x1="1359.5726" x2="1353.5726" y1="475.49" y2="475.49"/><text fill="#000000" font-family="sans-serif" font-size="14" lengthAdjust="spacing" textLength="137.1426" x="1207.43" y="490.4851">Yandex Maps JS API</text></g><!--link browser to fe--><g class="link" data-entity-1="ent0002" data-entity-2="ent0005" data-link-type="dependency" data-source-line="24" id="lnk15"><path d="M469.5,102.02 C452.55,111.58 433.72,122.67 417,133.6 C349.19,177.92 278.1811,232.5676 235.8911,266.0276" fill="none" id="browser-to-fe" style="stroke:#181818;stroke-width:1;"/><polygon fill="#181818" points="231.97,269.13,241.5099,266.6826,235.8911,266.0276,236.5461,260.4088,231.97,269.13" style="stroke:#181818;stroke-width:1;stroke-linejoin:miter;stroke-miterlimit:10;"/><text fill="#000000" font-family="sans-serif" font-size="13" lengthAdjust="spacing" textLength="75.0928" x="427.3469" y="146.6669">HTTP :5173</text><text fill="#000000" font-family="sans-serif" font-size="13" lengthAdjust="spacing" textLength="93.7866" x="418" y="161.7997">(&#1089;&#1090;&#1072;&#1090;&#1080;&#1082;&#1072; SPA)</text></g><!--link browser to be--><g class="link" data-entity-1="ent0002" data-entity-2="ent0007" data-link-type="dependency" data-source-line="25" id="lnk16"><path d="M520,101.97 C520,144.62 520,221.78 520,264.35" fill="none" id="browser-to-be" style="stroke:#181818;stroke-width:1;"/><polygon fill="#181818" points="520,269.35,524,260.35,520,264.35,516,260.35,520,269.35" style="stroke:#181818;stroke-width:1;stroke-linejoin:miter;stroke-miterlimit:10;"/><text fill="#000000" font-family="sans-serif" font-size="13" lengthAdjust="spacing" textLength="70.0908" x="521" y="146.6669">HTTPS /api</text><text fill="#000000" font-family="sans-serif" font-size="13" lengthAdjust="spacing" textLength="43.583" x="534.2539" y="161.7997">(REST)</text></g><!--link browser to ya--><g class="link" data-entity-1="ent0002" data-entity-2="ent0014" data-link-type="dependency" data-source-line="26" id="lnk17"><path d="M580.97,98.52 C700.72,146.41 973.02,261.67 1180,397.19 C1210.63,417.24 1238.5483,442.0928 1258.0583,460.6628" fill="none" id="browser-to-ya" style="stroke:#181818;stroke-width:1;"/><polygon fill="#181818" points="1261.68,464.11,1257.9187,455.0077,1258.0583,460.6628,1252.4032,460.8024,1261.68,464.11" style="stroke:#181818;stroke-width:1;stroke-linejoin:miter;stroke-miterlimit:10;"/><text fill="#000000" font-family="sans-serif" font-size="13" lengthAdjust="spacing" textLength="41.7485" x="1096" y="301.9569">HTTPS</text></g><!--link be to pg--><g class="link" data-entity-1="ent0007" data-entity-2="ent0009" data-link-type="dependency" data-source-line="27" id="lnk18"><path d="M519.56,325.65 C519.05,357.17 518.2815,404.2607 517.7015,439.8307" fill="none" id="be-to-pg" style="stroke:#181818;stroke-width:1;"/><polygon fill="#181818" points="517.62,444.83,521.7662,435.8964,517.7015,439.8307,513.7673,435.766,517.62,444.83" style="stroke:#181818;stroke-width:1;stroke-linejoin:miter;stroke-miterlimit:10;"/><text fill="#000000" font-family="sans-serif" font-size="13" lengthAdjust="spacing" textLength="66.4536" x="520" y="370.2569">TCP :5432</text><text fill="#000000" font-family="sans-serif" font-size="13" lengthAdjust="spacing" textLength="64.4668" x="520.9934" y="385.3897">(asyncpg)</text></g><!--link be to otm--><g class="link" data-entity-1="ent0007" data-entity-2="ent0011" data-link-type="dependency" data-source-line="28" id="lnk19"><path d="M554.77,325.56 C567.45,335.49 581.89,346.83 595,357.19 C642.75,394.93 694.4465,436.2454 725.3165,460.9554" fill="none" id="be-to-otm" style="stroke:#181818;stroke-width:1;"/><polygon fill="#181818" points="729.22,464.08,724.6934,455.333,725.3165,460.9554,719.6941,461.5786,729.22,464.08" style="stroke:#181818;stroke-width:1;stroke-linejoin:miter;stroke-miterlimit:10;"/><text fill="#000000" font-family="sans-serif" font-size="13" lengthAdjust="spacing" textLength="41.7485" x="635" y="377.7569">HTTPS</text></g><!--link be to osrm--><g class="link" data-entity-1="ent0007" data-entity-2="ent0012" data-link-type="dependency" data-source-line="29" id="lnk20"><path d="M598,308.22 C668,320.07 770.97,345.3 846,397.19 C871.22,414.63 888.6103,440.3625 899.7103,459.9025" fill="none" id="be-to-osrm" style="stroke:#181818;stroke-width:1;"/><polygon fill="#181818" points="902.18,464.25,901.2126,454.4488,899.7103,459.9025,894.2566,458.4002,902.18,464.25" style="stroke:#181818;stroke-width:1;stroke-linejoin:miter;stroke-miterlimit:10;"/><text fill="#000000" font-family="sans-serif" font-size="13" lengthAdjust="spacing" textLength="41.7485" x="831" y="377.7569">HTTPS</text></g><!--link be to osm--><g class="link" data-entity-1="ent0007" data-entity-2="ent0013" data-link-type="dependency" data-source-line="30" id="lnk21"><path d="M598.03,299.75 C694.27,304.71 859.73,324.27 979,397.19 C1010.25,416.29 1037.9524,441.5666 1056.9924,460.4766" fill="none" id="be-to-osm" style="stroke:#181818;stroke-width:1;"/><polygon fill="#181818" points="1060.54,464,1056.973,454.8198,1056.9924,460.4766,1051.3356,460.496,1060.54,464" style="stroke:#181818;stroke-width:1;stroke-linejoin:miter;stroke-miterlimit:10;"/><text fill="#000000" font-family="sans-serif" font-size="13" lengthAdjust="spacing" textLength="41.7485" x="958" y="377.7569">HTTPS</text></g><?plantuml-src XLBTQXD16BtFKtpiLKE9fOb5o8LGwb_5Qkok1Q4WixkJi6XcXfbfDKYXqGiB5GfUUYU-G5C8fchZAyo-aMTsuvgqHMzcTywSyvqptpT2ffm2zpKVvk_oGpTrv_xFdRafkL_O_iW_kc_udhbJm6FiJm9wMoDYscPTbbY8Fm4VDTm8-jFyFUZZ_71NB8MTTThPuzIg1yGCnLg-DbpN3cerKPf-yKHKnafBTsJoaclQa7qb3Q-N9ZFYPmIuAEpFtKL1xsefB1TfIPjFyzXBcarQfftCSiH8-NuZ7yvPhL1nHN-VIVu1qD1zn-u4i1kvANZObfcx7DKF_XKaPeXzNOvd-raYjK2EUypOzSuceZ2bRlHP9jhucJNblmPf_ATsoYoBcG6j8utjQHu-VKIhQxjYcJnmVpE41RHJzvDKoJ0llAYqKht22krFNiczj9YRjpZ2Ed5ZgdeqGNkEBm_vYU8YqfdQOefmcQAYjFr5JhYzzVVGwFwL2g7LdDk56cQHzPo9bByXK0mz32lQWFdWioT4ZSPjZ8RQ53o8eWwrrrPljVpTgx7w2HBUNprOqCIL9gGLfZ9ejk-6qINMW5Ki7F02KpsFHHlUx6QhwMTf1Y9HlNf5GJUkwdmNhaFdmDy0?></g></svg>