<svg xmlns="http://www.w3.org/2000/svg" xmlns:xlink="http://www.w3.org/1999/xlink" contentStyleType="text/css" data-diagram-type="ACTIVITY" height="1519px" preserveAspectRatio="none" style="width:763px;height:1519px;background:#FFFFFF;" version="1.1" viewBox="0 0 763 1519" width="763px" zoomAndPan="magnify"><?plantuml 1.2026.5?><defs/><g><rect fill="none" height="20.9531" style="stroke:none;stroke-width:1;" width="716.7104" x="20" y="17.7451"/><ellipse cx="203.2793" cy="53.6982" fill="#222222" rx="10" ry="10" style="stroke:#222222;stroke-width:1;"/><rect fill="#F1F1F1" height="33.9688" rx="12.5" ry="12.5" style="stroke:#181818;stroke-width:0.5;" width="241.9648" x="82.2969" y="83.6982"/><text fill="#000000" font-family="sans-serif" font-size="12" lengthAdjust="spacing" textLength="221.9648" x="92.2969" y="104.8369">&#1059;&#1082;&#1072;&#1079;&#1072;&#1090;&#1100; &#1085;&#1072;&#1095;&#1072;&#1083;&#1100;&#1085;&#1091;&#1102; &#1090;&#1086;&#1095;&#1082;&#1091; &#1085;&#1072; &#1082;&#1072;&#1088;&#1090;&#1077;</text><rect fill="#F1F1F1" height="33.9688" rx="12.5" ry="12.5" style="stroke:#181818;stroke-width:0.5;" width="290.1641" x="58.1973" y="137.667"/><text fill="#000000" font-family="sans-serif" font-size="12" lengthAdjust="spacing" textLength="270.1641" x="68.1973" y="158.8057">&#1047;&#1072;&#1076;&#1072;&#1090;&#1100; &#1076;&#1083;&#1080;&#1085;&#1091; &#1084;&#1072;&#1088;&#1096;&#1088;&#1091;&#1090;&#1072; &#1080; &#1095;&#1080;&#1089;&#1083;&#1086; &#1086;&#1073;&#1098;&#1077;&#1082;&#1090;&#1086;&#1074;</text><rect fill="#F1F1F1" height="33.9688" rx="12.5" ry="12.5" style="stroke:#181818;stroke-width:0.5;" width="354.5586" x="26" y="191.6357"/><text fill="#000000" font-family="sans-serif" font-size="12" lengthAdjust="spacing" textLength="334.5586" x="36" y="212.7744">&#1042;&#1099;&#1073;&#1088;&#1072;&#1090;&#1100; &#1082;&#1072;&#1090;&#1077;&#1075;&#1086;&#1088;&#1080;&#1080; &#1080;&#1083;&#1080; &#1088;&#1077;&#1078;&#1080;&#1084; &#171;&#1087;&#1086; &#1087;&#1088;&#1077;&#1076;&#1087;&#1086;&#1095;&#1090;&#1077;&#1085;&#1080;&#1103;&#1084;&#187;</text><rect fill="#F1F1F1" height="33.9688" rx="12.5" ry="12.5" style="stroke:#181818;stroke-width:0.5;" width="227.9609" x="89.2988" y="245.6045"/><text fill="#000000" font-family="sans-serif" font-size="12" lengthAdjust="spacing" textLength="207.9609" x="99.2988" y="266.7432">&#1047;&#1072;&#1087;&#1088;&#1086;&#1089;&#1080;&#1090;&#1100; &#1075;&#1077;&#1085;&#1077;&#1088;&#1072;&#1094;&#1080;&#1102; &#1084;&#1072;&#1088;&#1096;&#1088;&#1091;&#1090;&#1072;</text><rect fill="#F1F1F1" height="33.9688" rx="12.5" ry="12.5" style="stroke:#181818;stroke-width:0.5;" width="156.002" x="125.2783" y="673.6943"/><text fill="#000000" font-family="sans-serif" font-size="12" lengthAdjust="spacing" textLength="136.002" x="135.2783" y="694.833">&#1048;&#1079;&#1084;&#1077;&#1085;&#1080;&#1090;&#1100; &#1087;&#1072;&#1088;&#1072;&#1084;&#1077;&#1090;&#1088;&#1099;</text><ellipse cx="203.2793" cy="738.6631" fill="none" rx="11" ry="11" style="stroke:#222222;stroke-width:1;"/><ellipse cx="203.2793" cy="738.6631" fill="#222222" rx="6" ry="6" style="stroke:#222222;stroke-width:1;"/><rect fill="#F1F1F1" height="33.9688" rx="12.5" ry="12.5" style="stroke:#181818;stroke-width:0.5;" width="241.8535" x="82.3525" y="791.6631"/><text fill="#000000" font-family="sans-serif" font-size="12" lengthAdjust="spacing" textLength="221.8535" x="92.3525" y="812.8018">&#1055;&#1086;&#1089;&#1090;&#1088;&#1086;&#1080;&#1090;&#1100; &#1087;&#1077;&#1096;&#1080;&#1081; &#1084;&#1072;&#1088;&#1096;&#1088;&#1091;&#1090; (OSRM)</text><rect fill="#F1F1F1" height="33.9688" rx="12.5" ry="12.5" style="stroke:#181818;stroke-width:0.5;" width="236.9023" x="84.8281" y="845.6318"/><text fill="#000000" font-family="sans-serif" font-size="12" lengthAdjust="spacing" textLength="216.9023" x="94.8281" y="866.7705">&#1057;&#1086;&#1093;&#1088;&#1072;&#1085;&#1080;&#1090;&#1100; &#1084;&#1072;&#1088;&#1096;&#1088;&#1091;&#1090; &#1082;&#1072;&#1082; &#1095;&#1077;&#1088;&#1085;&#1086;&#1074;&#1080;&#1082;</text><rect fill="#F1F1F1" height="47.9375" rx="12.5" ry="12.5" style="stroke:#181818;stroke-width:0.5;" width="243.8223" x="81.3682" y="899.6006"/><text fill="#000000" font-family="sans-serif" font-size="12" lengthAdjust="spacing" textLength="223.8223" x="91.3682" y="920.7393">&#1055;&#1088;&#1086;&#1089;&#1084;&#1086;&#1090;&#1088;&#1077;&#1090;&#1100; &#1080; &#1087;&#1088;&#1080; &#1085;&#1077;&#1086;&#1073;&#1093;&#1086;&#1076;&#1080;&#1084;&#1086;&#1089;&#1090;&#1080;</text><text fill="#000000" font-family="sans-serif" font-size="12" lengthAdjust="spacing" textLength="170.9941" x="91.3682" y="934.708">&#1086;&#1090;&#1088;&#1077;&#1076;&#1072;&#1082;&#1090;&#1080;&#1088;&#1086;&#1074;&#1072;&#1090;&#1100; &#1084;&#1072;&#1088;&#1096;&#1088;&#1091;&#1090;</text><rect fill="#F1F1F1" height="33.9688" rx="12.5" ry="12.5" style="stroke:#181818;stroke-width:0.5;" width="126.9277" x="139.8154" y="967.5381"/><text fill="#000000" font-family="sans-serif" font-size="12" lengthAdjust="spacing" textLength="106.9277" x="149.8154" y="988.6768">&#1053;&#1072;&#1095;&#1072;&#1090;&#1100; &#1087;&#1088;&#1086;&#1075;&#1091;&#1083;&#1082;&#1091;</text><rect fill="#F1F1F1" height="33.9688" rx="12.5" ry="12.5" style="stroke:#181818;stroke-width:0.5;" width="275.627" x="65.4658" y="1065.5068"/><text fill="#000000" font-family="sans-serif" font-size="12" lengthAdjust="spacing" textLength="255.627" x="75.4658" y="1086.6455">&#1044;&#1086;&#1081;&#1090;&#1080; &#1076;&#1086; &#1090;&#1086;&#1095;&#1082;&#1080; &#1080; &#1086;&#1090;&#1084;&#1077;&#1090;&#1080;&#1090;&#1100; &#171;&#1087;&#1086;&#1089;&#1077;&#1097;&#1077;&#1085;&#1086;&#187;</text><rect fill="#F1F1F1" height="33.9688" rx="12.5" ry="12.5" style="stroke:#181818;stroke-width:0.5;" width="293.7148" x="56.4219" y="1180.9443"/><text fill="#000000" font-family="sans-serif" font-size="12" lengthAdjust="spacing" textLength="273.7148" x="66.4219" y="1202.083">&#1055;&#1086;&#1089;&#1090;&#1072;&#1074;&#1080;&#1090;&#1100; &#1086;&#1094;&#1077;&#1085;&#1082;&#1091; &#171;&#1085;&#1088;&#1072;&#1074;&#1080;&#1090;&#1089;&#1103;/&#1085;&#1077; &#1085;&#1088;&#1072;&#1074;&#1080;&#1090;&#1089;&#1103;&#187;</text><polygon fill="#F1F1F1" points="203.2793,1021.5068,215.2793,1033.5068,203.2793,1045.5068,191.2793,1033.5068,203.2793,1021.5068" style="stroke:#181818;stroke-width:0.5;stroke-linejoin:miter;stroke-miterlimit:10;"/><polygon fill="#F1F1F1" points="109.0354,1288.8818,297.5232,1288.8818,309.5232,1300.8818,297.5232,1312.8818,109.0354,1312.8818,97.0354,1300.8818,109.0354,1288.8818" style="stroke:#181818;stroke-width:0.5;stroke-linejoin:miter;stroke-miterlimit:10;"/><text fill="#000000" font-family="sans-serif" font-size="11" lengthAdjust="spacing" textLength="188.4878" x="109.0354" y="1304.6899">&#1054;&#1089;&#1090;&#1072;&#1083;&#1080;&#1089;&#1100; &#1085;&#1077;&#1087;&#1086;&#1089;&#1077;&#1097;&#1105;&#1085;&#1085;&#1099;&#1077; &#1090;&#1086;&#1095;&#1082;&#1080;?</text><text fill="#000000" font-family="sans-serif" font-size="11" lengthAdjust="spacing" textLength="14.3462" x="309.5232" y="1298.2876">&#1076;&#1072;</text><rect fill="#F1F1F1" height="33.9688" rx="12.5" ry="12.5" style="stroke:#181818;stroke-width:0.5;" width="150.4883" x="128.0352" y="1354.2808"/><text fill="#000000" font-family="sans-serif" font-size="12" lengthAdjust="spacing" textLength="130.4883" x="138.0352" y="1375.4194">&#1047;&#1072;&#1074;&#1077;&#1088;&#1096;&#1080;&#1090;&#1100; &#1084;&#1072;&#1088;&#1096;&#1088;&#1091;&#1090;</text><rect fill="#F1F1F1" height="47.9375" rx="12.5" ry="12.5" style="stroke:#181818;stroke-width:0.5;" width="180.377" x="113.0908" y="1408.2495"/><text fill="#000000" font-family="sans-serif" font-size="12" lengthAdjust="spacing" textLength="154.4473" x="123.0908" y="1429.3882">&#1055;&#1088;&#1080; &#1078;&#1077;&#1083;&#1072;&#1085;&#1080;&#1080; &#1089;&#1086;&#1093;&#1088;&#1072;&#1085;&#1080;&#1090;&#1100;</text><text fill="#000000" font-family="sans-serif" font-size="12" lengthAdjust="spacing" textLength="160.377" x="123.0908" y="1443.3569">&#1080; &#1086;&#1087;&#1091;&#1073;&#1083;&#1080;&#1082;&#1086;&#1074;&#1072;&#1090;&#1100; &#1084;&#1072;&#1088;&#1096;&#1088;&#1091;&#1090;</text><ellipse cx="203.2793" cy="1487.187" fill="none" rx="11" ry="11" style="stroke:#222222;stroke-width:1;"/><ellipse cx="203.2793" cy="1487.187" fill="#222222" rx="6" ry="6" style="stroke:#222222;stroke-width:1;"/><line style="stroke:#000000;stroke-width:1.5;" x1="20" x2="20" y1="17.7451" y2="1498.187"/><rect fill="#F1F1F1" height="33.9688" rx="12.5" ry="12.5" style="stroke:#181818;stroke-width:0.5;" width="329.9375" x="395.7354" y="299.5732"/><text fill="#000000" font-family="sans-serif" font-size="12" lengthAdjust="spacing" textLength="309.9375" x="405.7354" y="320.7119">&#1047;&#1072;&#1075;&#1088;&#1091;&#1079;&#1080;&#1090;&#1100; &#1087;&#1088;&#1086;&#1092;&#1080;&#1083;&#1100; &#1087;&#1088;&#1077;&#1076;&#1087;&#1086;&#1095;&#1090;&#1077;&#1085;&#1080;&#1081; &#1087;&#1086;&#1083;&#1100;&#1079;&#1086;&#1074;&#1072;&#1090;&#1077;&#1083;&#1103;</text><rect fill="#F1F1F1" height="47.9375" rx="12.5" ry="12.5" style="stroke:#181818;stroke-width:0.5;" width="340.291" x="390.5586" y="353.542"/><text fill="#000000" font-family="sans-serif" font-size="12" lengthAdjust="spacing" textLength="320.291" x="400.5586" y="374.6807">&#1047;&#1072;&#1087;&#1088;&#1086;&#1089;&#1080;&#1090;&#1100; &#1076;&#1086;&#1089;&#1090;&#1086;&#1087;&#1088;&#1080;&#1084;&#1077;&#1095;&#1072;&#1090;&#1077;&#1083;&#1100;&#1085;&#1086;&#1089;&#1090;&#1080; (OpenTripMap)</text><text fill="#000000" font-family="sans-serif" font-size="12" lengthAdjust="spacing" textLength="175.8164" x="400.5586" y="388.6494">&#1074; &#1088;&#1072;&#1076;&#1080;&#1091;&#1089;&#1077; &#1076;&#1083;&#1080;&#1085;&#1099; &#1084;&#1072;&#1088;&#1096;&#1088;&#1091;&#1090;&#1072;</text><rect fill="#F1F1F1" height="47.9375" rx="12.5" ry="12.5" style="stroke:#181818;stroke-width:0.5;" width="272.3809" x="424.5137" y="421.4795"/><text fill="#000000" font-family="sans-serif" font-size="12" lengthAdjust="spacing" textLength="202.5293" x="434.5137" y="442.6182">&#1056;&#1072;&#1089;&#1089;&#1095;&#1080;&#1090;&#1072;&#1090;&#1100; &#1086;&#1094;&#1077;&#1085;&#1082;&#1091; &#1082;&#1072;&#1078;&#1076;&#1086;&#1075;&#1086; POI</text><text fill="#000000" font-family="sans-serif" font-size="12" lengthAdjust="spacing" textLength="252.3809" x="434.5137" y="456.5869">(&#1082;&#1072;&#1090;&#1077;&#1075;&#1086;&#1088;&#1080;&#1103; + &#1088;&#1077;&#1081;&#1090;&#1080;&#1085;&#1075; + &#1087;&#1088;&#1077;&#1076;&#1087;&#1086;&#1095;&#1090;&#1077;&#1085;&#1080;&#1103;)</text><rect fill="#F1F1F1" height="47.9375" rx="12.5" ry="12.5" style="stroke:#181818;stroke-width:0.5;" width="260.5215" x="430.4434" y="489.417"/><text fill="#000000" font-family="sans-serif" font-size="12" lengthAdjust="spacing" textLength="240.5215" x="440.4434" y="510.5557">&#1042;&#1099;&#1073;&#1088;&#1072;&#1090;&#1100; &#1082;&#1086;&#1085;&#1077;&#1095;&#1085;&#1091;&#1102; &#1090;&#1086;&#1095;&#1082;&#1091; &#1080; &#1087;&#1086;&#1089;&#1090;&#1088;&#1086;&#1080;&#1090;&#1100;</text><text fill="#000000" font-family="sans-serif" font-size="12" lengthAdjust="spacing" textLength="229.2305" x="440.4434" y="524.5244">&#1083;&#1080;&#1085;&#1077;&#1081;&#1085;&#1099;&#1081; &#171;&#1082;&#1086;&#1088;&#1080;&#1076;&#1086;&#1088;&#187; &#1080;&#1079; N &#1086;&#1073;&#1098;&#1077;&#1082;&#1090;&#1086;&#1074;</text><rect fill="#F1F1F1" height="47.9375" rx="12.5" ry="12.5" style="stroke:#181818;stroke-width:0.5;" width="186.1719" x="467.6182" y="605.7568"/><text fill="#000000" font-family="sans-serif" font-size="12" lengthAdjust="spacing" textLength="103.9277" x="477.6182" y="626.8955">&#1042;&#1077;&#1088;&#1085;&#1091;&#1090;&#1100; &#1086;&#1096;&#1080;&#1073;&#1082;&#1091;</text><text fill="#000000" font-family="sans-serif" font-size="12" lengthAdjust="spacing" textLength="166.1719" x="477.6182" y="640.8643">&#171;&#1085;&#1077;&#1076;&#1086;&#1089;&#1090;&#1072;&#1090;&#1086;&#1095;&#1085;&#1086; &#1086;&#1073;&#1098;&#1077;&#1082;&#1090;&#1086;&#1074;&#187;</text><polygon fill="#F1F1F1" points="494.8384,557.3545,626.5698,557.3545,638.5698,569.3545,626.5698,581.3545,494.8384,581.3545,482.8384,569.3545,494.8384,557.3545" style="stroke:#181818;stroke-width:0.5;stroke-linejoin:miter;stroke-miterlimit:10;"/><text fill="#000000" font-family="sans-serif" font-size="11" lengthAdjust="spacing" textLength="20.3672" x="564.7041" y="591.5649">&#1085;&#1077;&#1090;</text><text fill="#000000" font-family="sans-serif" font-size="11" lengthAdjust="spacing" textLength="131.7314" x="494.8384" y="573.1626">&#1044;&#1086;&#1089;&#1090;&#1072;&#1090;&#1086;&#1095;&#1085;&#1086; &#1086;&#1073;&#1098;&#1077;&#1082;&#1090;&#1086;&#1074;?</text><text fill="#000000" font-family="sans-serif" font-size="11" lengthAdjust="spacing" textLength="14.3462" x="638.5698" y="566.7603">&#1076;&#1072;</text><rect fill="#F1F1F1" height="33.9688" rx="12.5" ry="12.5" style="stroke:#181818;stroke-width:0.5;" width="232.4434" x="444.4824" y="1119.4756"/><text fill="#000000" font-family="sans-serif" font-size="12" lengthAdjust="spacing" textLength="212.4434" x="454.4824" y="1140.6143">&#1054;&#1073;&#1085;&#1086;&#1074;&#1080;&#1090;&#1100; &#1087;&#1088;&#1077;&#1076;&#1087;&#1086;&#1095;&#1090;&#1077;&#1085;&#1080;&#1103; (EMA, +)</text><rect fill="#F1F1F1" height="33.9688" rx="12.5" ry="12.5" style="stroke:#181818;stroke-width:0.5;" width="225.541" x="447.9336" y="1234.9131"/><text fill="#000000" font-family="sans-serif" font-size="12" lengthAdjust="spacing" textLength="205.541" x="457.9336" y="1256.0518">&#1057;&#1082;&#1086;&#1088;&#1088;&#1077;&#1082;&#1090;&#1080;&#1088;&#1086;&#1074;&#1072;&#1090;&#1100; &#1087;&#1088;&#1077;&#1076;&#1087;&#1086;&#1095;&#1090;&#1077;&#1085;&#1080;&#1103;</text><line style="stroke:#000000;stroke-width:1.5;" x1="384.5586" x2="384.5586" y1="17.7451" y2="1498.187"/><line style="stroke:#000000;stroke-width:1.5;" x1="734.8496" x2="734.8496" y1="17.7451" y2="1498.187"/><line style="stroke:#181818;stroke-width:1;" x1="203.2793" x2="203.2793" y1="63.6982" y2="83.6982"/><polygon fill="#181818" points="199.2793,73.6982,203.2793,83.6982,207.2793,73.6982,203.2793,77.6982" style="stroke:#181818;stroke-width:1;stroke-linejoin:miter;stroke-miterlimit:10;"/><line style="stroke:#181818;stroke-width:1;" x1="203.2793" x2="203.2793" y1="117.667" y2="137.667"/><polygon fill="#181818" points="199.2793,127.667,203.2793,137.667,207.2793,127.667,203.2793,131.667" style="stroke:#181818;stroke-width:1;stroke-linejoin:miter;stroke-miterlimit:10;"/><line style="stroke:#181818;stroke-width:1;" x1="203.2793" x2="203.2793" y1="171.6357" y2="191.6357"/><polygon fill="#181818" points="199.2793,181.6357,203.2793,191.6357,207.2793,181.6357,203.2793,185.6357" style="stroke:#181818;stroke-width:1;stroke-linejoin:miter;stroke-miterlimit:10;"/><line style="stroke:#181818;stroke-width:1;" x1="203.2793" x2="203.2793" y1="225.6045" y2="245.6045"/><polygon fill="#181818" points="199.2793,235.6045,203.2793,245.6045,207.2793,235.6045,203.2793,239.6045" style="stroke:#181818;stroke-width:1;stroke-linejoin:miter;stroke-miterlimit:10;"/><line style="stroke:#181818;stroke-width:1;" x1="203.2793" x2="203.2793" y1="707.6631" y2="727.6631"/><polygon fill="#181818" points="199.2793,717.6631,203.2793,727.6631,207.2793,717.6631,203.2793,721.6631" style="stroke:#181818;stroke-width:1;stroke-linejoin:miter;stroke-miterlimit:10;"/><line style="stroke:#181818;stroke-width:1;" x1="203.2793" x2="203.2793" y1="825.6318" y2="845.6318"/><polygon fill="#181818" points="199.2793,835.6318,203.2793,845.6318,207.2793,835.6318,203.2793,839.6318" style="stroke:#181818;stroke-width:1;stroke-linejoin:miter;stroke-miterlimit:10;"/><line style="stroke:#181818;stroke-width:1;" x1="203.2793" x2="203.2793" y1="879.6006" y2="899.6006"/><polygon fill="#181818" points="199.2793,889.6006,203.2793,899.6006,207.2793,889.6006,203.2793,893.6006" style="stroke:#181818;stroke-width:1;stroke-linejoin:miter;stroke-miterlimit:10;"/><line style="stroke:#181818;stroke-width:1;" x1="203.2793" x2="203.2793" y1="947.5381" y2="967.5381"/><polygon fill="#181818" points="199.2793,957.5381,203.2793,967.5381,207.2793,957.5381,203.2793,961.5381" style="stroke:#181818;stroke-width:1;stroke-linejoin:miter;stroke-miterlimit:10;"/><line style="stroke:#181818;stroke-width:1;" x1="203.2793" x2="203.2793" y1="1045.5068" y2="1065.5068"/><polygon fill="#181818" points="199.2793,1055.5068,203.2793,1065.5068,207.2793,1055.5068,203.2793,1059.5068" style="stroke:#181818;stroke-width:1;stroke-linejoin:miter;stroke-miterlimit:10;"/><line style="stroke:#181818;stroke-width:1;" x1="97.0354" x2="44.4219" y1="1300.8818" y2="1300.8818"/><polygon fill="#181818" points="40.4219,1173.4443,44.4219,1163.4443,48.4219,1173.4443,44.4219,1169.4443" style="stroke:#181818;stroke-width:1;stroke-linejoin:miter;stroke-miterlimit:10;"/><line style="stroke:#181818;stroke-width:1;" x1="44.4219" x2="44.4219" y1="1033.5068" y2="1300.8818"/><line style="stroke:#181818;stroke-width:1;" x1="44.4219" x2="191.2793" y1="1033.5068" y2="1033.5068"/><polygon fill="#181818" points="181.2793,1029.5068,191.2793,1033.5068,181.2793,1037.5068,185.2793,1033.5068" style="stroke:#181818;stroke-width:1;stroke-linejoin:miter;stroke-miterlimit:10;"/><line style="stroke:#181818;stroke-width:1;" x1="203.2793" x2="203.2793" y1="1001.5068" y2="1021.5068"/><polygon fill="#181818" points="199.2793,1011.5068,203.2793,1021.5068,207.2793,1011.5068,203.2793,1015.5068" style="stroke:#181818;stroke-width:1;stroke-linejoin:miter;stroke-miterlimit:10;"/><line style="stroke:#181818;stroke-width:1;" x1="203.2793" x2="203.2793" y1="1312.8818" y2="1354.2808"/><polygon fill="#181818" points="199.2793,1344.2808,203.2793,1354.2808,207.2793,1344.2808,203.2793,1348.2808" style="stroke:#181818;stroke-width:1;stroke-linejoin:miter;stroke-miterlimit:10;"/><text fill="#000000" font-family="sans-serif" font-size="11" lengthAdjust="spacing" textLength="20.3672" x="207.2793" y="1334.1865">&#1085;&#1077;&#1090;</text><line style="stroke:#181818;stroke-width:1;" x1="203.2793" x2="203.2793" y1="1388.2495" y2="1408.2495"/><polygon fill="#181818" points="199.2793,1398.2495,203.2793,1408.2495,207.2793,1398.2495,203.2793,1402.2495" style="stroke:#181818;stroke-width:1;stroke-linejoin:miter;stroke-miterlimit:10;"/><line style="stroke:#181818;stroke-width:1;" x1="203.2793" x2="203.2793" y1="1456.187" y2="1476.187"/><polygon fill="#181818" points="199.2793,1466.187,203.2793,1476.187,207.2793,1466.187,203.2793,1470.187" style="stroke:#181818;stroke-width:1;stroke-linejoin:miter;stroke-miterlimit:10;"/><line style="stroke:#181818;stroke-width:1;" x1="560.7041" x2="560.7041" y1="333.542" y2="353.542"/><polygon fill="#181818" points="556.7041,343.542,560.7041,353.542,564.7041,343.542,560.7041,347.542" style="stroke:#181818;stroke-width:1;stroke-linejoin:miter;stroke-miterlimit:10;"/><line style="stroke:#181818;stroke-width:1;" x1="560.7041" x2="560.7041" y1="401.4795" y2="421.4795"/><polygon fill="#181818" points="556.7041,411.4795,560.7041,421.4795,564.7041,411.4795,560.7041,415.4795" style="stroke:#181818;stroke-width:1;stroke-linejoin:miter;stroke-miterlimit:10;"/><line style="stroke:#181818;stroke-width:1;" x1="560.7041" x2="560.7041" y1="469.417" y2="489.417"/><polygon fill="#181818" points="556.7041,479.417,560.7041,489.417,564.7041,479.417,560.7041,483.417" style="stroke:#181818;stroke-width:1;stroke-linejoin:miter;stroke-miterlimit:10;"/><line style="stroke:#181818;stroke-width:1;" x1="560.7041" x2="560.7041" y1="581.3545" y2="605.7568"/><polygon fill="#181818" points="556.7041,595.7568,560.7041,605.7568,564.7041,595.7568,560.7041,599.7568" style="stroke:#181818;stroke-width:1;stroke-linejoin:miter;stroke-miterlimit:10;"/><line style="stroke:#181818;stroke-width:1;" x1="638.5698" x2="663.79" y1="569.3545" y2="569.3545"/><polygon fill="#181818" points="659.79,673.46,663.79,683.46,667.79,673.46,663.79,677.46" style="stroke:#181818;stroke-width:1;stroke-linejoin:miter;stroke-miterlimit:10;"/><line style="stroke:#181818;stroke-width:1;" x1="663.79" x2="663.79" y1="569.3545" y2="776.6631"/><line style="stroke:#181818;stroke-width:1;" x1="663.79" x2="203.2793" y1="776.6631" y2="776.6631"/><line style="stroke:#181818;stroke-width:1;" x1="203.2793" x2="203.2793" y1="776.6631" y2="791.6631"/><polygon fill="#181818" points="199.2793,781.6631,203.2793,791.6631,207.2793,781.6631,203.2793,785.6631" style="stroke:#181818;stroke-width:1;stroke-linejoin:miter;stroke-miterlimit:10;"/><line style="stroke:#181818;stroke-width:1;" x1="560.7041" x2="560.7041" y1="537.3545" y2="557.3545"/><polygon fill="#181818" points="556.7041,547.3545,560.7041,557.3545,564.7041,547.3545,560.7041,551.3545" style="stroke:#181818;stroke-width:1;stroke-linejoin:miter;stroke-miterlimit:10;"/><line style="stroke:#181818;stroke-width:1;" x1="203.2793" x2="203.2793" y1="279.5732" y2="284.5732"/><line style="stroke:#181818;stroke-width:1;" x1="203.2793" x2="560.7041" y1="284.5732" y2="284.5732"/><line style="stroke:#181818;stroke-width:1;" x1="560.7041" x2="560.7041" y1="284.5732" y2="299.5732"/><polygon fill="#181818" points="556.7041,289.5732,560.7041,299.5732,564.7041,289.5732,560.7041,293.5732" style="stroke:#181818;stroke-width:1;stroke-linejoin:miter;stroke-miterlimit:10;"/><line style="stroke:#181818;stroke-width:1;" x1="560.7041" x2="560.7041" y1="653.6943" y2="658.6943"/><line style="stroke:#181818;stroke-width:1;" x1="560.7041" x2="203.2793" y1="658.6943" y2="658.6943"/><line style="stroke:#181818;stroke-width:1;" x1="203.2793" x2="203.2793" y1="658.6943" y2="673.6943"/><polygon fill="#181818" points="199.2793,663.6943,203.2793,673.6943,207.2793,663.6943,203.2793,667.6943" style="stroke:#181818;stroke-width:1;stroke-linejoin:miter;stroke-miterlimit:10;"/><line style="stroke:#181818;stroke-width:1;" x1="203.2793" x2="203.2793" y1="1099.4756" y2="1104.4756"/><line style="stroke:#181818;stroke-width:1;" x1="203.2793" x2="560.7041" y1="1104.4756" y2="1104.4756"/><line style="stroke:#181818;stroke-width:1;" x1="560.7041" x2="560.7041" y1="1104.4756" y2="1119.4756"/><polygon fill="#181818" points="556.7041,1109.4756,560.7041,1119.4756,564.7041,1109.4756,560.7041,1113.4756" style="stroke:#181818;stroke-width:1;stroke-linejoin:miter;stroke-miterlimit:10;"/><line style="stroke:#181818;stroke-width:1;" x1="560.7041" x2="560.7041" y1="1153.4443" y2="1163.4443"/><line style="stroke:#181818;stroke-width:1;" x1="560.7041" x2="203.2793" y1="1163.4443" y2="1163.4443"/><line style="stroke:#181818;stroke-width:1;" x1="203.2793" x2="203.2793" y1="1163.4443" y2="1180.9443"/><polygon fill="#181818" points="199.2793,1170.9443,203.2793,1180.9443,207.2793,1170.9443,203.2793,1174.9443" style="stroke:#181818;stroke-width:1;stroke-linejoin:miter;stroke-miterlimit:10;"/><line style="stroke:#181818;stroke-width:1;" x1="203.2793" x2="203.2793" y1="1214.9131" y2="1219.9131"/><line style="stroke:#181818;stroke-width:1;" x1="203.2793" x2="560.7041" y1="1219.9131" y2="1219.9131"/><line style="stroke:#181818;stroke-width:1;" x1="560.7041" x2="560.7041" y1="1219.9131" y2="1234.9131"/><polygon fill="#181818" points="556.7041,1224.9131,560.7041,1234.9131,564.7041,1224.9131,560.7041,1228.9131" style="stroke:#181818;stroke-width:1;stroke-linejoin:miter;stroke-miterlimit:10;"/><line style="stroke:#181818;stroke-width:1;" x1="560.7041" x2="560.7041" y1="1268.8818" y2="1273.8818"/><line style="stroke:#181818;stroke-width:1;" x1="560.7041" x2="203.2793" y1="1273.8818" y2="1273.8818"/><line style="stroke:#181818;stroke-width:1;" x1="203.2793" x2="203.2793" y1="1273.8818" y2="1288.8818"/><polygon fill="#181818" points="199.2793,1278.8818,203.2793,1288.8818,207.2793,1278.8818,203.2793,1282.8818" style="stroke:#181818;stroke-width:1;stroke-linejoin:miter;stroke-miterlimit:10;"/><text fill="#000000" font-family="sans-serif" font-size="18" lengthAdjust="spacing" textLength="65.1533" x="169.7026" y="34.4531">&#1058;&#1091;&#1088;&#1080;&#1089;&#1090;</text><text fill="#000000" font-family="sans-serif" font-size="18" lengthAdjust="spacing" textLength="159.8994" x="479.7544" y="34.4531">&#1057;&#1077;&#1088;&#1074;&#1077;&#1088; IndiGuide</text><?plantuml-src ZLLDJnDH5DtFhtZBDcZSGw9nOGmBnAX_W8GXD27Oq1etNVH3B0gXqPZeHX1Tke6sqmwTTaZu1VVz8y-vxqsXPQg6C67Ut8zpppdtKPEVjcNh4jk6RTQ2IdLZhneiooyPoRaCvTmsxP6H2Vveuo2nHp91_B6nJKbnDB8j_MeOR-iuZLQG_XMn_IovBud4J3Corg03_BOGYgpOe0Xw8oGraig5_IWHggAwT5dfipt4OJshnIxe8Jrq1sZauv6mJ1sd0xoCpVLlkMArApthyyMsDMk2LXqPNoSPHeQaw1wxwZsDYRJTUnmUtq6y4WGrETEGBfzcTNUpzFHDQJEi-P8zXe8vNz9rU4UKsUiTJ79fUA3i3Zcu7pAndGL0-tnHagwKXZ6mjATPqCX_ZqrXlHpkljehbTSsoiL0kYIAsiIOfo7HZJg7ERCkomySDV13aPgP22d88N0LdpuP410rCS_NLuF2l4gsOvQSG9V4XCmU3XRfKyoLFLLXsZdkYvKyZakE74E16ueTEHe8XYb6tZCahtwTq3b3yop7TQKjKv0ldi9ptskIOz17HLFT3dSHJN3DOc0CeAixYDEJTO165yIApu0nqQ7_NPmkDQOskvziy0qc6NksdCUe6sIW2q22FMHYfVgw78GxbH3ei8h588HJjq3jwJnPB10foiiv3y0zBr-igI1doDhNBjEsiw5gX17NMSTN6ySoqeMP6G48l9d7U197vEh5pXAnKOh8nZwUVRMtjtEGPN0a9IhMERgPKMOm4VTtTtFTMaPiQ0lsW1uhmLvO3ZUgoYhqTlRKxPewJ6yOgjXqzFhXtHt33R8VL8eqasl1vS0M9x219-O6Jyu6cCAJjSVtp59nWG5EC_VSLBgzalIOAkM-Dcpd0HarywV_WVZCBOt2p65x0VuSs8veytQxj4D3ddZyYNu_SefF2RMVyCwrZMx9W5qhLJ8ltt_eDYwx7XKyBRp01QVELmDUZyx2_9VHcFTqe59Zh1QKuWqo-ektk61_0000?></g></svg>