<svg xmlns="http://www.w3.org/2000/svg" xmlns:xlink="http://www.w3.org/1999/xlink" contentStyleType="text/css" data-diagram-type="DESCRIPTION" height="890px" preserveAspectRatio="none" style="width:1311px;height:890px;background:#FFFFFF;" version="1.1" viewBox="0 0 1311 890" width="1311px" zoomAndPan="magnify"><?plantuml 1.2026.5?><defs/><g><!--cluster ?????? (???????)--><g class="cluster" data-qualified-name="...... ........." data-source-line="1" id="ent0001"><path d="M439.82,6 L583.3014,6 A3.75,3.75 0 0 1 585.8014,8.5 L592.8014,28.2969 L807.82,28.2969 A2.5,2.5 0 0 1 810.32,30.7969 L810.32,224.39 A2.5,2.5 0 0 1 807.82,226.89 L439.82,226.89 A2.5,2.5 0 0 1 437.32,224.39 L437.32,8.5 A2.5,2.5 0 0 1 439.82,6" fill="none" style="stroke:#000000;stroke-width:1.5;"/><line style="stroke:#000000;stroke-width:1.5;" x1="437.32" x2="592.8014" y1="28.2969" y2="28.2969"/><text fill="#000000" font-family="sans-serif" font-size="14" font-weight="700" lengthAdjust="spacing" textLength="142.4814" x="441.32" y="20.9951">&#1050;&#1083;&#1080;&#1077;&#1085;&#1090; (&#1073;&#1088;&#1072;&#1091;&#1079;&#1077;&#1088;)</text></g><!--cluster ?????? ? FastAPI--><g class="cluster" data-qualified-name="...... . FastAPI" data-source-line="9" id="ent0007"><path d="M27.82,275.89 L171.0759,275.89 A3.75,3.75 0 0 1 173.5759,278.39 L180.5759,298.1869 L579.82,298.1869 A2.5,2.5 0 0 1 582.32,300.6869 L582.32,770.61 A2.5,2.5 0 0 1 579.82,773.11 L27.82,773.11 A2.5,2.5 0 0 1 25.32,770.61 L25.32,278.39 A2.5,2.5 0 0 1 27.82,275.89" fill="none" style="stroke:#000000;stroke-width:1.5;"/><line style="stroke:#000000;stroke-width:1.5;" x1="25.32" x2="180.5759" y1="298.1869" y2="298.1869"/><text fill="#000000" font-family="sans-serif" font-size="14" font-weight="700" lengthAdjust="spacing" textLength="142.2559" x="29.32" y="290.8851">&#1057;&#1077;&#1088;&#1074;&#1077;&#1088; &#8212; FastAPI</text></g><!--cluster ??????? ???????--><g class="cluster" data-qualified-name="....... ......." data-source-line="26" id="ent0021"><path d="M621.64,679.3506 C636.9535,658.5179 652.3349,660.5778 664.1287,682.8223 C676.9924,660.8134 699.5933,652.1928 716.1965,678.8189 C731.6642,653.3384 751.0431,656.328 765.0135,680.2971 C776.0843,661.4463 790.6169,658.9744 806.2876,674.8261 C819.3624,655.9436 842.6131,656.3516 853.4109,677.5062 C865.2704,653.1452 892.1892,652.2727 907.3131,673.66 C919.3032,655.7647 938.1736,651.9967 949.4683,674.3877 C962.9453,655.3528 983.1378,651.2031 996.6675,674.3287 C1015.8093,653.5486 1032.7487,651.7869 1046.9317,679.4715 C1058.7719,657.9735 1081.3786,656.343 1092.9378,679.7594 C1107.7563,652.4186 1125.2212,656.2489 1143.7108,675.7831 C1156.2167,656.9086 1174.0674,657.4878 1184.8578,677.5939 C1200.049,656.5605 1219.3393,653.8937 1233.3353,678.8538 C1245.7404,655.5392 1265.5433,655.7283 1279.3674,677.4019 C1291.0438,681.4168 1292.3424,691.8897 1282.6297,699.1177 C1292.0749,705.8685 1291.4065,714.2631 1280.483,718.7913 C1288.8147,724.8021 1290.8802,731.9108 1280.5756,738.0114 C1290.5957,741.9173 1292.8314,750.1184 1283.4768,756.9867 C1269.7877,783.9257 1252.9318,788.5154 1232.2394,763.9542 C1216.5542,781.9682 1203.2188,785.6093 1188.1562,763.2739 C1177.3269,785.086 1155.9641,785.8694 1143.4737,765.0134 C1129.2106,784.9201 1104.5296,790.0024 1093.1229,762.0108 C1080.5606,788.7971 1061.4863,789.747 1043.4039,767.6221 C1027.7802,787.2481 1009.4118,786.5883 999.8931,761.6602 C985.0645,784.0128 969.4414,788.4108 952.0743,764.2711 C936.923,789.871 914.6228,788.6505 902.6708,761.2869 C891.054,784.5936 876.6273,783 859.7264,767.0703 C841.8792,789.0772 818.883,787.2682 806.306,761.2127 C794.3592,783.1108 773.9668,787.4204 757.3053,766.6236 C741.8375,784.5907 726.2397,783.7242 712.8134,764.2008 C698.6502,783.5762 675.6562,784.1475 666.9487,758.6273 C654.0739,779.7564 631.1428,783.2076 617.5106,759.4618 C605.0661,754.3052 605.1533,743.7455 615.8005,736.8431 C607.2765,731.0438 606.2946,725.0999 614.3325,718.0097 C606.918,712.1096 606.1652,703.9202 616.2996,699.9294 C607.6509,690.1135 610.947,684.1471 621.64,679.3506" fill="none" style="stroke:#181818;stroke-width:1;"/><text fill="#000000" font-family="sans-serif" font-size="14" font-weight="700" lengthAdjust="spacing" textLength="146.002" x="873.319" y="693.6651">&#1042;&#1085;&#1077;&#1096;&#1085;&#1080;&#1077; &#1089;&#1077;&#1088;&#1074;&#1080;&#1089;&#1099;</text></g><!--entity SPA--><g class="entity" data-qualified-name="...... ..........SPA" data-source-line="2" id="ent0002"><rect fill="#F1F1F1" height="46.2969" rx="2.5" ry="2.5" style="stroke:#181818;stroke-width:0.5;" width="218.7871" x="513.93" y="41"/><rect fill="#F1F1F1" height="10" style="stroke:#181818;stroke-width:0.5;" width="15" x="712.7171" y="46"/><rect fill="#F1F1F1" height="2" style="stroke:#181818;stroke-width:0.5;" width="4" x="710.7171" y="48"/><rect fill="#F1F1F1" height="2" style="stroke:#181818;stroke-width:0.5;" width="4" x="710.7171" y="52"/><text fill="#000000" font-family="sans-serif" font-size="14" lengthAdjust="spacing" textLength="178.7871" x="528.93" y="73.9951">SPA &#8212; Vue 3 / TypeScript</text></g><!--entity STORE--><g class="entity" data-qualified-name="...... ..........STORE" data-source-line="3" id="ent0003"><rect fill="#F1F1F1" height="62.5938" rx="2.5" ry="2.5" style="stroke:#181818;stroke-width:0.5;" width="136.2295" x="453.21" y="148.29"/><rect fill="#F1F1F1" height="10" style="stroke:#181818;stroke-width:0.5;" width="15" x="569.4395" y="153.29"/><rect fill="#F1F1F1" height="2" style="stroke:#181818;stroke-width:0.5;" width="4" x="567.4395" y="155.29"/><rect fill="#F1F1F1" height="2" style="stroke:#181818;stroke-width:0.5;" width="4" x="567.4395" y="159.29"/><text fill="#000000" font-family="sans-serif" font-size="14" lengthAdjust="spacing" textLength="81.1357" x="468.21" y="181.2851">Pinia stores</text><text fill="#000000" font-family="sans-serif" font-size="14" lengthAdjust="spacing" textLength="96.2295" x="468.21" y="197.582">(auth, routes)</text></g><!--entity MAP--><g class="entity" data-qualified-name="...... ..........MAP" data-source-line="4" id="ent0004"><rect fill="#F1F1F1" height="62.5938" rx="2.5" ry="2.5" style="stroke:#181818;stroke-width:0.5;" width="169.9717" x="624.33" y="148.29"/><rect fill="#F1F1F1" height="10" style="stroke:#181818;stroke-width:0.5;" width="15" x="774.3017" y="153.29"/><rect fill="#F1F1F1" height="2" style="stroke:#181818;stroke-width:0.5;" width="4" x="772.3017" y="155.29"/><rect fill="#F1F1F1" height="2" style="stroke:#181818;stroke-width:0.5;" width="4" x="772.3017" y="159.29"/><text fill="#000000" font-family="sans-serif" font-size="14" lengthAdjust="spacing" textLength="129.9717" x="639.33" y="181.2851">&#1050;&#1086;&#1084;&#1087;&#1086;&#1079;&#1072;&#1073;&#1083; &#1082;&#1072;&#1088;&#1090;&#1099;</text><text fill="#000000" font-family="sans-serif" font-size="14" lengthAdjust="spacing" textLength="106.1143" x="639.33" y="197.582">useYandexMap</text></g><!--entity ROUTERS--><g class="entity" data-qualified-name="...... . FastAPI.ROUTERS" data-source-line="10" id="ent0008"><rect fill="#F1F1F1" height="62.5938" rx="2.5" ry="2.5" style="stroke:#181818;stroke-width:0.5;" width="266.3105" x="196.16" y="310.89"/><rect fill="#F1F1F1" height="10" style="stroke:#181818;stroke-width:0.5;" width="15" x="442.4705" y="315.89"/><rect fill="#F1F1F1" height="2" style="stroke:#181818;stroke-width:0.5;" width="4" x="440.4705" y="317.89"/><rect fill="#F1F1F1" height="2" style="stroke:#181818;stroke-width:0.5;" width="4" x="440.4705" y="321.89"/><text fill="#000000" font-family="sans-serif" font-size="14" lengthAdjust="spacing" textLength="146.4531" x="211.16" y="343.8851">&#1052;&#1072;&#1088;&#1096;&#1088;&#1091;&#1090;&#1080;&#1079;&#1072;&#1094;&#1080;&#1103; API</text><text fill="#000000" font-family="sans-serif" font-size="14" lengthAdjust="spacing" textLength="226.3105" x="211.16" y="360.182">(auth, routes, pois, preferences)</text></g><!--entity GEN--><g class="entity" data-qualified-name="...... . FastAPI.GEN" data-source-line="11" id="ent0009"><rect fill="#F1F1F1" height="62.5938" rx="2.5" ry="2.5" style="stroke:#181818;stroke-width:0.5;" width="254.8945" x="80.87" y="434.48"/><rect fill="#F1F1F1" height="10" style="stroke:#181818;stroke-width:0.5;" width="15" x="315.7645" y="439.48"/><rect fill="#F1F1F1" height="2" style="stroke:#181818;stroke-width:0.5;" width="4" x="313.7645" y="441.48"/><rect fill="#F1F1F1" height="2" style="stroke:#181818;stroke-width:0.5;" width="4" x="313.7645" y="445.48"/><text fill="#000000" font-family="sans-serif" font-size="14" lengthAdjust="spacing" textLength="214.8945" x="95.87" y="467.4751">&#1057;&#1077;&#1088;&#1074;&#1080;&#1089; &#1075;&#1077;&#1085;&#1077;&#1088;&#1072;&#1094;&#1080;&#1080; &#1084;&#1072;&#1088;&#1096;&#1088;&#1091;&#1090;&#1072;</text><text fill="#000000" font-family="sans-serif" font-size="14" lengthAdjust="spacing" textLength="113.4287" x="95.87" y="483.772">route_generator</text></g><!--entity PREF--><g class="entity" data-qualified-name="...... . FastAPI.PREF" data-source-line="12" id="ent0010"><rect fill="#F1F1F1" height="62.5938" rx="2.5" ry="2.5" style="stroke:#181818;stroke-width:0.5;" width="203.2148" x="115.71" y="558.07"/><rect fill="#F1F1F1" height="10" style="stroke:#181818;stroke-width:0.5;" width="15" x="298.9248" y="563.07"/><rect fill="#F1F1F1" height="2" style="stroke:#181818;stroke-width:0.5;" width="4" x="296.9248" y="565.07"/><rect fill="#F1F1F1" height="2" style="stroke:#181818;stroke-width:0.5;" width="4" x="296.9248" y="569.07"/><text fill="#000000" font-family="sans-serif" font-size="14" lengthAdjust="spacing" textLength="163.2148" x="130.71" y="591.0651">&#1057;&#1077;&#1088;&#1074;&#1080;&#1089; &#1087;&#1088;&#1077;&#1076;&#1087;&#1086;&#1095;&#1090;&#1077;&#1085;&#1080;&#1081;</text><text fill="#000000" font-family="sans-serif" font-size="14" lengthAdjust="spacing" textLength="129.5205" x="130.71" y="607.362">preferences (EMA)</text></g><!--entity CLIENTS--><g class="entity" data-qualified-name="...... . FastAPI.CLIENTS" data-source-line="13" id="ent0011"><rect fill="#F1F1F1" height="62.5938" rx="2.5" ry="2.5" style="stroke:#181818;stroke-width:0.5;" width="212.6143" x="354.01" y="558.07"/><rect fill="#F1F1F1" height="10" style="stroke:#181818;stroke-width:0.5;" width="15" x="546.6243" y="563.07"/><rect fill="#F1F1F1" height="2" style="stroke:#181818;stroke-width:0.5;" width="4" x="544.6243" y="565.07"/><rect fill="#F1F1F1" height="2" style="stroke:#181818;stroke-width:0.5;" width="4" x="544.6243" y="569.07"/><text fill="#000000" font-family="sans-serif" font-size="14" lengthAdjust="spacing" textLength="161.376" x="369.01" y="591.0651">&#1050;&#1083;&#1080;&#1077;&#1085;&#1090;&#1099; &#1074;&#1085;&#1077;&#1096;&#1085;&#1080;&#1093; API</text><text fill="#000000" font-family="sans-serif" font-size="14" lengthAdjust="spacing" textLength="172.6143" x="369.01" y="607.362">opentripmap, osrm, osm</text></g><!--entity ORM--><g class="entity" data-qualified-name="...... . FastAPI.ORM" data-source-line="14" id="ent0012"><rect fill="#F1F1F1" height="62.5938" rx="2.5" ry="2.5" style="stroke:#181818;stroke-width:0.5;" width="165.5557" x="41.54" y="694.52"/><rect fill="#F1F1F1" height="10" style="stroke:#181818;stroke-width:0.5;" width="15" x="187.0957" y="699.52"/><rect fill="#F1F1F1" height="2" style="stroke:#181818;stroke-width:0.5;" width="4" x="185.0957" y="701.52"/><rect fill="#F1F1F1" height="2" style="stroke:#181818;stroke-width:0.5;" width="4" x="185.0957" y="705.52"/><text fill="#000000" font-family="sans-serif" font-size="14" lengthAdjust="spacing" textLength="96.7422" x="56.54" y="727.5151">&#1057;&#1083;&#1086;&#1081; &#1076;&#1072;&#1085;&#1085;&#1099;&#1093;</text><text fill="#000000" font-family="sans-serif" font-size="14" lengthAdjust="spacing" textLength="125.5557" x="56.54" y="743.812">SQLAlchemy ORM</text></g><!--entity OpenTripMap--><g class="entity" data-qualified-name="....... ........OpenTripMap" data-source-line="27" id="ent0022"><rect fill="#F1F1F1" height="46.2969" rx="2.5" ry="2.5" style="stroke:#181818;stroke-width:0.5;" width="134.0215" x="622.31" y="702.67"/><rect fill="#F1F1F1" height="10" style="stroke:#181818;stroke-width:0.5;" width="15" x="736.3315" y="707.67"/><rect fill="#F1F1F1" height="2" style="stroke:#181818;stroke-width:0.5;" width="4" x="734.3315" y="709.67"/><rect fill="#F1F1F1" height="2" style="stroke:#181818;stroke-width:0.5;" width="4" x="734.3315" y="713.67"/><text fill="#000000" font-family="sans-serif" font-size="14" lengthAdjust="spacing" textLength="94.0215" x="637.31" y="735.6651">OpenTripMap</text></g><!--entity OSRM--><g class="entity" data-qualified-name="....... ........OSRM" data-source-line="28" id="ent0023"><rect fill="#F1F1F1" height="46.2969" rx="2.5" ry="2.5" style="stroke:#181818;stroke-width:0.5;" width="81.7129" x="791.46" y="702.67"/><rect fill="#F1F1F1" height="10" style="stroke:#181818;stroke-width:0.5;" width="15" x="853.1729" y="707.67"/><rect fill="#F1F1F1" height="2" style="stroke:#181818;stroke-width:0.5;" width="4" x="851.1729" y="709.67"/><rect fill="#F1F1F1" height="2" style="stroke:#181818;stroke-width:0.5;" width="4" x="851.1729" y="713.67"/><text fill="#000000" font-family="sans-serif" font-size="14" lengthAdjust="spacing" textLength="41.7129" x="806.46" y="735.6651">OSRM</text></g><!--entity OpenStreetMap--><g class="entity" data-qualified-name="....... ........OpenStreetMap" data-source-line="29" id="ent0024"><rect fill="#F1F1F1" height="46.2969" rx="2.5" ry="2.5" style="stroke:#181818;stroke-width:0.5;" width="149.7852" x="908.43" y="702.67"/><rect fill="#F1F1F1" height="10" style="stroke:#181818;stroke-width:0.5;" width="15" x="1038.2152" y="707.67"/><rect fill="#F1F1F1" height="2" style="stroke:#181818;stroke-width:0.5;" width="4" x="1036.2152" y="709.67"/><rect fill="#F1F1F1" height="2" style="stroke:#181818;stroke-width:0.5;" width="4" x="1036.2152" y="713.67"/><text fill="#000000" font-family="sans-serif" font-size="14" lengthAdjust="spacing" textLength="109.7852" x="923.43" y="735.6651">OpenStreetMap</text></g><!--entity YA--><g class="entity" data-qualified-name="....... ........YA" data-source-line="30" id="ent0025"><rect fill="#F1F1F1" height="46.2969" rx="2.5" ry="2.5" style="stroke:#181818;stroke-width:0.5;" width="177.1426" x="1092.75" y="702.67"/><rect fill="#F1F1F1" height="10" style="stroke:#181818;stroke-width:0.5;" width="15" x="1249.8926" y="707.67"/><rect fill="#F1F1F1" height="2" style="stroke:#181818;stroke-width:0.5;" width="4" x="1247.8926" y="709.67"/><rect fill="#F1F1F1" height="2" style="stroke:#181818;stroke-width:0.5;" width="4" x="1247.8926" y="713.67"/><text fill="#000000" font-family="sans-serif" font-size="14" lengthAdjust="spacing" textLength="137.1426" x="1107.75" y="735.6651">Yandex Maps JS API</text></g><!--entity DB--><g class="entity" data-qualified-name="DB" data-source-line="24" id="ent0020"><path d="M25.67,830.11 C25.67,820.11 124.3219,820.11 124.3219,820.11 C124.3219,820.11 222.9737,820.11 222.9737,830.11 L222.9737,855.4069 C222.9737,865.4069 124.3219,865.4069 124.3219,865.4069 C124.3219,865.4069 25.67,865.4069 25.67,855.4069 L25.67,830.11" fill="#F1F1F1" style="stroke:#181818;stroke-width:0.5;"/><path d="M25.67,830.11 C25.67,840.11 124.3219,840.11 124.3219,840.11 C124.3219,840.11 222.9737,840.11 222.9737,830.11" fill="none" style="stroke:#181818;stroke-width:0.5;"/><text fill="#000000" font-family="sans-serif" font-size="14" lengthAdjust="spacing" textLength="177.3037" x="35.67" y="857.1051">PostgreSQL 15 + PostGIS</text></g><!--link SPA to STORE--><g class="link" data-entity-1="ent0002" data-entity-2="ent0003" data-link-type="dependency" data-source-line="5" id="lnk5"><path d="M603.17,87.56 C587.61,104.86 569.2523,125.2713 552.1123,144.3413" fill="none" id="SPA-to-STORE" style="stroke:#181818;stroke-width:1;"/><polygon fill="#181818" points="548.77,148.06,557.7612,144.0402,552.1123,144.3413,551.8113,138.6925,548.77,148.06" style="stroke:#181818;stroke-width:1;stroke-linejoin:miter;stroke-miterlimit:10;"/></g><!--link SPA to MAP--><g class="link" data-entity-1="ent0002" data-entity-2="ent0004" data-link-type="dependency" data-source-line="6" id="lnk6"><path d="M640.31,87.56 C653.43,104.86 668.699,125.0058 683.159,144.0758" fill="none" id="SPA-to-MAP" style="stroke:#181818;stroke-width:1;"/><polygon fill="#181818" points="686.18,148.06,683.9295,138.4717,683.159,144.0758,677.5548,143.3053,686.18,148.06" style="stroke:#181818;stroke-width:1;stroke-linejoin:miter;stroke-miterlimit:10;"/></g><!--link ROUTERS to GEN--><g class="link" data-entity-1="ent0008" data-entity-2="ent0009" data-link-type="dependency" data-source-line="15" id="lnk13"><path d="M298.79,373.87 C280.44,392.3 260.7069,412.1258 242.3669,430.5558" fill="none" id="ROUTERS-to-GEN" style="stroke:#181818;stroke-width:1;"/><polygon fill="#181818" points="238.84,434.1,248.0237,430.542,242.3669,430.5558,242.353,424.899,238.84,434.1" style="stroke:#181818;stroke-width:1;stroke-linejoin:miter;stroke-miterlimit:10;"/></g><!--link ROUTERS to PREF--><g class="link" data-entity-1="ent0008" data-entity-2="ent0010" data-link-type="dependency" data-source-line="16" id="lnk14"><path d="M344.73,373.96 C358.66,406.43 374.06,458.18 353.32,497.07 C339.41,523.17 318.6674,540.6081 293.8274,555.1181" fill="none" id="ROUTERS-to-PREF" style="stroke:#181818;stroke-width:1;"/><polygon fill="#181818" points="289.51,557.64,299.2988,556.5544,293.8274,555.1181,295.2637,549.6466,289.51,557.64" style="stroke:#181818;stroke-width:1;stroke-linejoin:miter;stroke-miterlimit:10;"/></g><!--link GEN to CLIENTS--><g class="link" data-entity-1="ent0009" data-entity-2="ent0011" data-link-type="dependency" data-source-line="17" id="lnk15"><path d="M271.91,497.46 C310.11,515.89 354.0467,537.0973 392.2467,555.5273" fill="none" id="GEN-to-CLIENTS" style="stroke:#181818;stroke-width:1;"/><polygon fill="#181818" points="396.75,557.7,390.3822,550.1866,392.2467,555.5273,386.906,557.3918,396.75,557.7" style="stroke:#181818;stroke-width:1;stroke-linejoin:miter;stroke-miterlimit:10;"/></g><!--link GEN to PREF--><g class="link" data-entity-1="ent0009" data-entity-2="ent0010" data-link-type="dependency" data-source-line="18" id="lnk16"><path d="M210.59,497.46 C211.96,515.89 213.322,534.2836 214.682,552.7136" fill="none" id="GEN-to-PREF" style="stroke:#181818;stroke-width:1;"/><polygon fill="#181818" points="215.05,557.7,218.3768,548.43,214.682,552.7136,210.3985,549.0188,215.05,557.7" style="stroke:#181818;stroke-width:1;stroke-linejoin:miter;stroke-miterlimit:10;"/></g><!--link ROUTERS to ORM--><g class="link" data-entity-1="ent0008" data-entity-2="ent0012" data-link-type="dependency" data-source-line="19" id="lnk17"><path d="M195.78,356.5 C145.85,368.72 93.89,391.67 63.32,434.48 C6,514.75 65.9348,633.1408 101.1048,689.8508" fill="none" id="ROUTERS-to-ORM" style="stroke:#181818;stroke-width:1;"/><polygon fill="#181818" points="103.74,694.1,102.3959,684.3433,101.1048,689.8508,95.5972,688.5597,103.74,694.1" style="stroke:#181818;stroke-width:1;stroke-linejoin:miter;stroke-miterlimit:10;"/></g><!--link GEN to ORM--><g class="link" data-entity-1="ent0009" data-entity-2="ent0012" data-link-type="dependency" data-source-line="20" id="lnk18"><path d="M153.7,497.47 C132.26,512.66 110.03,533.14 98.32,558.07 C77.59,602.23 92.8792,654.872 107.4692,689.512" fill="none" id="GEN-to-ORM" style="stroke:#181818;stroke-width:1;"/><polygon fill="#181818" points="109.41,694.12,109.6029,684.273,107.4692,689.512,102.2302,687.3783,109.41,694.12" style="stroke:#181818;stroke-width:1;stroke-linejoin:miter;stroke-miterlimit:10;"/></g><!--link PREF to ORM--><g class="link" data-entity-1="ent0010" data-entity-2="ent0012" data-link-type="dependency" data-source-line="21" id="lnk19"><path d="M196.22,620.88 C181,642.88 163.3839,668.3376 148.1839,690.3176" fill="none" id="PREF-to-ORM" style="stroke:#181818;stroke-width:1;"/><polygon fill="#181818" points="145.34,694.43,153.749,689.3027,148.1839,690.3176,147.1691,684.7525,145.34,694.43" style="stroke:#181818;stroke-width:1;stroke-linejoin:miter;stroke-miterlimit:10;"/></g><!--link STORE to ROUTERS--><g class="link" data-entity-1="ent0003" data-entity-2="ent0008" data-link-type="dependency" data-source-line="33" id="lnk26"><path d="M484.75,211.17 C450.7,239.66 404.0247,278.6915 369.9147,307.2315" fill="none" id="STORE-to-ROUTERS" style="stroke:#181818;stroke-width:1;"/><polygon fill="#181818" points="366.08,310.44,375.5494,307.7324,369.9147,307.2315,370.4157,301.5968,366.08,310.44" style="stroke:#181818;stroke-width:1;stroke-linejoin:miter;stroke-miterlimit:10;"/><text fill="#000000" font-family="sans-serif" font-size="13" lengthAdjust="spacing" textLength="78.127" x="443.32" y="255.9569">REST / JSON</text></g><!--link MAP to YA--><g class="link" data-entity-1="ent0004" data-entity-2="ent0025" data-link-type="dependency" data-source-line="34" id="lnk27"><path d="M789.49,211.3 C841.76,237.13 900.32,279.77 900.32,341.18 C900.32,341.18 900.32,341.18 900.32,590.37 C900.32,674.02 1000.51,622.23 1075.32,659.67 C1100.62,672.33 1123.6007,686.3705 1144.0907,699.7205" fill="none" id="MAP-to-YA" style="stroke:#181818;stroke-width:1;"/><polygon fill="#181818" points="1148.28,702.45,1142.9229,694.1855,1144.0907,699.7205,1138.5557,700.8884,1148.28,702.45" style="stroke:#181818;stroke-width:1;stroke-linejoin:miter;stroke-miterlimit:10;"/></g><!--link ORM to DB--><g class="link" data-entity-1="ent0012" data-entity-2="ent0020" data-link-type="dependency" data-source-line="35" id="lnk28"><path d="M124.32,757.32 C124.32,777 124.32,797.15 124.32,814.87" fill="none" id="ORM-to-DB" style="stroke:#181818;stroke-width:1;"/><polygon fill="#181818" points="124.32,819.87,128.32,810.87,124.32,814.87,120.32,810.87,124.32,819.87" style="stroke:#181818;stroke-width:1;stroke-linejoin:miter;stroke-miterlimit:10;"/></g><!--link CLIENTS to OpenTripMap--><g class="link" data-entity-1="ent0011" data-entity-2="ent0022" data-link-type="dependency" data-source-line="36" id="lnk29"><path d="M515.18,621.07 C536.26,632.98 560.48,646.82 582.32,659.67 C605.94,673.56 627.9705,686.9415 648.5805,699.6115" fill="none" id="CLIENTS-to-OpenTripMap" style="stroke:#181818;stroke-width:1;"/><polygon fill="#181818" points="652.84,702.23,647.2677,694.1091,648.5805,699.6115,643.0781,700.9243,652.84,702.23" style="stroke:#181818;stroke-width:1;stroke-linejoin:miter;stroke-miterlimit:10;"/></g><!--link CLIENTS to OSRM--><g class="link" data-entity-1="ent0011" data-entity-2="ent0023" data-link-type="dependency" data-source-line="37" id="lnk30"><path d="M543.59,621.01 C578.29,632.53 619.3,644.55 657.32,651.67 C682.94,656.46 750.92,648.2 774.32,659.67 C793.22,668.93 805.8775,683.2129 816.0675,698.1129" fill="none" id="CLIENTS-to-OSRM" style="stroke:#181818;stroke-width:1;"/><polygon fill="#181818" points="818.89,702.24,817.1112,692.5531,816.0675,698.1129,810.5077,697.0692,818.89,702.24" style="stroke:#181818;stroke-width:1;stroke-linejoin:miter;stroke-miterlimit:10;"/></g><!--link CLIENTS to OpenStreetMap--><g class="link" data-entity-1="ent0011" data-entity-2="ent0024" data-link-type="dependency" data-source-line="38" id="lnk31"><path d="M566.82,594.27 C656.08,600.62 785.39,617.1 890.32,659.67 C915.35,669.82 936.3483,684.6062 954.0683,699.0862" fill="none" id="CLIENTS-to-OpenStreetMap" style="stroke:#181818;stroke-width:1;"/><polygon fill="#181818" points="957.94,702.25,953.5019,693.4578,954.0683,699.0862,948.4398,699.6525,957.94,702.25" style="stroke:#181818;stroke-width:1;stroke-linejoin:miter;stroke-miterlimit:10;"/></g><?plantuml-src PLFDRjD04BxxAKOvfI8LGeWB1oHJt2fL4nlRHQemGekpf16DRNbjYGeXfQaAbNAeX3WXBhn12aHr2QMlCFiAF0cpQpj9wS5hpyxVztqpJbZuXlKvDF0Bph706Lx9CJJnN8vmAe_n0cTojDQ0TmR0SyynuU_eCppBETo7k-0V9jmBqq6IlG0cWDmgoXb40mOYYrCkWgZ9yco_1McSProibN6-xLegadh-mTzuJUS5Jl4Svu2_gEr8ZkKaY7B1zrZKusyxBD697TEXD8LYVVtHeanjA-zxmqWMZBufxFXTdHhs9XEPwRGhClXLTpgbvrYEYJf1a1-ma6T0GVy1Rq4I3zIPyjSyvL5OSt7jNTzoFLsmxbV88y0VIafzeQjY0SHqjU4qY7JjbtqUyPIHNBhWbjMzNUoQFcVuKoabFrAkAbtWPH2ju86crJ5BK8vhRLRwBcOg9q3L5A9JbInFIfPnmgEC9ZXaIGjYaGxLETHLDdRQLjUlgSrfI9T06AQKVYKdyYI8lASxva6upuU7OBiTdKHlIgXKqMCf2QtULF38eSrbd_gc2bZDAUlM0QMbmXOcJRx7ClQA2Hgz4ukidtB21_SUm1rGzbRRQoY4JnuRHdWGvptQa4zBGN06ycYfkPnKQsAJG3u9f7PGsnunhHrUbdAUrQvoMO5C0TkUqbTBicSgS7fRDTgQraDmBS-dtsZRixi6RQ_sKZJHqP-4jD96cpUXtFHeKBU2b_3-0G00?></g></svg>