<svg xmlns="http://www.w3.org/2000/svg" xmlns:xlink="http://www.w3.org/1999/xlink" contentStyleType="text/css" data-diagram-type="ACTIVITY" height="1585px" preserveAspectRatio="none" style="width:479px;height:1585px;background:#FFFFFF;" version="1.1" viewBox="0 0 479 1585" width="479px" zoomAndPan="magnify"><?plantuml 1.2026.5?><defs/><g><g class="title" data-source-line="1"><text fill="#000000" font-family="sans-serif" font-size="14" font-weight="700" lengthAdjust="spacing" textLength="437.7939" x="20" y="32.9951">&#1040;&#1083;&#1075;&#1086;&#1088;&#1080;&#1090;&#1084; &#1087;&#1086;&#1089;&#1090;&#1088;&#1086;&#1077;&#1085;&#1080;&#1103; &#1084;&#1072;&#1088;&#1096;&#1088;&#1091;&#1090;&#1072; &#171;&#1101;&#1085;&#1076;&#1087;&#1086;&#1080;&#1085;&#1090;-&#1082;&#1086;&#1088;&#1080;&#1076;&#1086;&#1088;&#187;</text></g><ellipse cx="229.562" cy="62.2969" fill="#222222" rx="10" ry="10" style="stroke:#222222;stroke-width:1;"/><rect fill="#F1F1F1" height="61.9063" rx="12.5" ry="12.5" style="stroke:#181818;stroke-width:0.5;" width="249.3301" x="104.897" y="92.2969"/><text fill="#000000" font-family="sans-serif" font-size="12" lengthAdjust="spacing" textLength="186.9551" x="114.897" y="113.4355">&#1042;&#1093;&#1086;&#1076;: &#1087;&#1091;&#1083; POI, &#1089;&#1090;&#1072;&#1088;&#1090; (lat, lon),</text><text fill="#000000" font-family="sans-serif" font-size="12" lengthAdjust="spacing" textLength="229.3301" x="114.897" y="127.4043">&#1095;&#1080;&#1089;&#1083;&#1086; &#1086;&#1073;&#1098;&#1077;&#1082;&#1090;&#1086;&#1074; N, &#1094;&#1077;&#1083;&#1077;&#1074;&#1072;&#1103; &#1076;&#1083;&#1080;&#1085;&#1072; L,</text><text fill="#000000" font-family="sans-serif" font-size="12" lengthAdjust="spacing" textLength="224.1211" x="114.897" y="141.373">&#1082;&#1072;&#1090;&#1077;&#1075;&#1086;&#1088;&#1080;&#1080;, &#1087;&#1088;&#1086;&#1092;&#1080;&#1083;&#1100; &#1087;&#1088;&#1077;&#1076;&#1087;&#1086;&#1095;&#1090;&#1077;&#1085;&#1080;&#1081;</text><rect fill="#F1F1F1" height="47.9375" rx="12.5" ry="12.5" style="stroke:#181818;stroke-width:0.5;" width="201.6465" x="128.7388" y="174.2031"/><text fill="#000000" font-family="sans-serif" font-size="12" lengthAdjust="spacing" textLength="102.7559" x="138.7388" y="195.3418">r_target = L / 1.3</text><text fill="#000000" font-family="sans-serif" font-size="12" lengthAdjust="spacing" textLength="181.6465" x="138.7388" y="209.3105">(&#1082;&#1086;&#1101;&#1092;&#1092;&#1080;&#1094;&#1080;&#1077;&#1085;&#1090; &#1087;&#1077;&#1096;&#1077;&#1075;&#1086; &#1087;&#1091;&#1090;&#1080;)</text><rect fill="#F1F1F1" height="61.9063" rx="12.5" ry="12.5" style="stroke:#181818;stroke-width:0.5;" width="285.6113" x="86.7563" y="242.1406"/><text fill="#000000" font-family="sans-serif" font-size="12" lengthAdjust="spacing" textLength="265.6113" x="96.7563" y="263.2793">&#1042;&#1099;&#1073;&#1088;&#1072;&#1090;&#1100; &#1082;&#1072;&#1085;&#1076;&#1080;&#1076;&#1072;&#1090;&#1086;&#1074; &#1074; &#1082;&#1086;&#1085;&#1077;&#1095;&#1085;&#1091;&#1102; &#1090;&#1086;&#1095;&#1082;&#1091; &#8212;</text><text fill="#000000" font-family="sans-serif" font-size="12" lengthAdjust="spacing" textLength="196.2246" x="96.7563" y="277.248">POI &#1074; &#1082;&#1086;&#1083;&#1100;&#1094;&#1077; &#1088;&#1072;&#1076;&#1080;&#1091;&#1089;&#1086;&#1084; r_target</text><text fill="#000000" font-family="sans-serif" font-size="12" lengthAdjust="spacing" textLength="116.4785" x="96.7563" y="291.2168">(_select_endpoints)</text><rect fill="#F1F1F1" height="47.9375" rx="12.5" ry="12.5" style="stroke:#181818;stroke-width:0.5;" width="290" x="84.562" y="372.4492"/><text fill="#000000" font-family="sans-serif" font-size="12" lengthAdjust="spacing" textLength="270" x="94.562" y="393.5879">&#1056;&#1072;&#1089;&#1096;&#1080;&#1088;&#1103;&#1090;&#1100; &#1082;&#1086;&#1083;&#1100;&#1094;&#1086; (10% -&gt; 15% -&gt; 20% ...)</text><text fill="#000000" font-family="sans-serif" font-size="12" lengthAdjust="spacing" textLength="166.2598" x="94.562" y="407.5566">&#1076;&#1086; &#1087;&#1086;&#1103;&#1074;&#1083;&#1077;&#1085;&#1080;&#1103; &#1082;&#1072;&#1085;&#1076;&#1080;&#1076;&#1072;&#1090;&#1086;&#1074;</text><polygon fill="#F1F1F1" points="183.9319,324.0469,275.1921,324.0469,287.1921,336.0469,275.1921,348.0469,183.9319,348.0469,171.9319,336.0469,183.9319,324.0469" style="stroke:#181818;stroke-width:0.5;stroke-linejoin:miter;stroke-miterlimit:10;"/><text fill="#000000" font-family="sans-serif" font-size="11" lengthAdjust="spacing" textLength="14.3462" x="233.562" y="358.2573">&#1076;&#1072;</text><text fill="#000000" font-family="sans-serif" font-size="11" lengthAdjust="spacing" textLength="91.2603" x="183.9319" y="339.855">&#1050;&#1086;&#1083;&#1100;&#1094;&#1086; &#1087;&#1091;&#1089;&#1090;&#1086;&#1077;?</text><polygon fill="#F1F1F1" points="229.562,440.3867,241.562,452.3867,229.562,464.3867,217.562,452.3867,229.562,440.3867" style="stroke:#181818;stroke-width:0.5;stroke-linejoin:miter;stroke-miterlimit:10;"/><rect fill="#F1F1F1" height="33.9688" rx="12.5" ry="12.5" style="stroke:#181818;stroke-width:0.5;" width="188.1055" x="135.5093" y="532.7891"/><text fill="#000000" font-family="sans-serif" font-size="12" lengthAdjust="spacing" textLength="168.1055" x="145.5093" y="553.9277">&#1042;&#1077;&#1088;&#1085;&#1091;&#1090;&#1100; &#1087;&#1091;&#1089;&#1090;&#1086;&#1081; &#1088;&#1077;&#1079;&#1091;&#1083;&#1100;&#1090;&#1072;&#1090;</text><ellipse cx="229.562" cy="606.2734" fill="none" rx="11" ry="11" style="stroke:#222222;stroke-width:1;"/><ellipse cx="229.562" cy="606.2734" fill="#222222" rx="6" ry="6" style="stroke:#222222;stroke-width:1;"/><polygon fill="#F1F1F1" points="179.4792,484.3867,279.6448,484.3867,291.6448,496.3867,279.6448,508.3867,179.4792,508.3867,167.4792,496.3867,179.4792,484.3867" style="stroke:#181818;stroke-width:0.5;stroke-linejoin:miter;stroke-miterlimit:10;"/><text fill="#000000" font-family="sans-serif" font-size="11" lengthAdjust="spacing" textLength="14.3462" x="233.562" y="518.5972">&#1076;&#1072;</text><text fill="#000000" font-family="sans-serif" font-size="11" lengthAdjust="spacing" textLength="100.1655" x="179.4792" y="500.1948">&#1050;&#1072;&#1085;&#1076;&#1080;&#1076;&#1072;&#1090;&#1086;&#1074; &#1085;&#1077;&#1090;?</text><rect fill="#F1F1F1" height="33.9688" rx="12.5" ry="12.5" style="stroke:#181818;stroke-width:0.5;" width="122.6563" x="168.2339" y="659.2734"/><text fill="#000000" font-family="sans-serif" font-size="12" lengthAdjust="spacing" textLength="102.6563" x="178.2339" y="680.4121">best_quality = -1</text><rect fill="#F1F1F1" height="47.9375" rx="12.5" ry="12.5" style="stroke:#181818;stroke-width:0.5;" width="309.3887" x="74.8677" y="767.2109"/><text fill="#000000" font-family="sans-serif" font-size="12" lengthAdjust="spacing" textLength="289.3887" x="84.8677" y="788.3496">&#1057;&#1087;&#1088;&#1086;&#1077;&#1094;&#1080;&#1088;&#1086;&#1074;&#1072;&#1090;&#1100; &#1074;&#1089;&#1077; POI &#1085;&#1072; &#1086;&#1089;&#1100; &#171;&#1089;&#1090;&#1072;&#1088;&#1090; -&gt; end&#187;</text><text fill="#000000" font-family="sans-serif" font-size="12" lengthAdjust="spacing" textLength="220.6582" x="84.8677" y="802.3184">(t &#8212; &#1087;&#1088;&#1086;&#1075;&#1088;&#1077;&#1089;&#1089;, perp &#8212; &#1086;&#1090;&#1082;&#1083;&#1086;&#1085;&#1077;&#1085;&#1080;&#1077;)</text><rect fill="#F1F1F1" height="33.9688" rx="12.5" ry="12.5" style="stroke:#181818;stroke-width:0.5;" width="223.9707" x="117.5767" y="835.1484"/><text fill="#000000" font-family="sans-serif" font-size="12" lengthAdjust="spacing" textLength="203.9707" x="127.5767" y="856.2871">&#1056;&#1072;&#1079;&#1073;&#1080;&#1090;&#1100; &#1086;&#1089;&#1100; &#1085;&#1072; N &#1088;&#1072;&#1074;&#1085;&#1099;&#1093; &#1089;&#1083;&#1086;&#1090;&#1086;&#1074;</text><rect fill="#F1F1F1" height="61.9063" rx="12.5" ry="12.5" style="stroke:#181818;stroke-width:0.5;" width="321.9688" x="68.5776" y="889.1172"/><text fill="#000000" font-family="sans-serif" font-size="12" lengthAdjust="spacing" textLength="301.9688" x="78.5776" y="910.2559">&#1042; &#1082;&#1072;&#1078;&#1076;&#1086;&#1084; &#1089;&#1083;&#1086;&#1090;&#1077; &#1074;&#1099;&#1073;&#1088;&#1072;&#1090;&#1100; POI &#1089; &#1083;&#1091;&#1095;&#1096;&#1077;&#1081; &#1086;&#1094;&#1077;&#1085;&#1082;&#1086;&#1081;</text><text fill="#000000" font-family="sans-serif" font-size="12" lengthAdjust="spacing" textLength="190.3242" x="78.5776" y="924.2246">&#1087;&#1088;&#1080; &#1084;&#1072;&#1083;&#1086;&#1084; &#1086;&#1090;&#1082;&#1083;&#1086;&#1085;&#1077;&#1085;&#1080;&#1080; &#1086;&#1090; &#1086;&#1089;&#1080;</text><text fill="#000000" font-family="sans-serif" font-size="12" lengthAdjust="spacing" textLength="135.873" x="78.5776" y="938.1934">(_build_corridor_route)</text><rect fill="#F1F1F1" height="47.9375" rx="12.5" ry="12.5" style="stroke:#181818;stroke-width:0.5;" width="257.6152" x="100.7544" y="1019.4258"/><text fill="#000000" font-family="sans-serif" font-size="12" lengthAdjust="spacing" textLength="237.6152" x="110.7544" y="1040.5645">&#1054;&#1094;&#1077;&#1085;&#1080;&#1090;&#1100; &#1076;&#1083;&#1080;&#1085;&#1091; &#1080; &#1082;&#1072;&#1095;&#1077;&#1089;&#1090;&#1074;&#1086; &#1084;&#1072;&#1088;&#1096;&#1088;&#1091;&#1090;&#1072;</text><text fill="#000000" font-family="sans-serif" font-size="12" lengthAdjust="spacing" textLength="198.5215" x="110.7544" y="1054.5332">(&#1083;&#1080;&#1085;&#1077;&#1081;&#1085;&#1086;&#1089;&#1090;&#1100; + &#1088;&#1072;&#1074;&#1085;&#1086;&#1084;&#1077;&#1088;&#1085;&#1086;&#1089;&#1090;&#1100;)</text><rect fill="#F1F1F1" height="33.9688" rx="12.5" ry="12.5" style="stroke:#181818;stroke-width:0.5;" width="222.7578" x="118.1831" y="1135.7656"/><text fill="#000000" font-family="sans-serif" font-size="12" lengthAdjust="spacing" textLength="202.7578" x="128.1831" y="1156.9043">&#1047;&#1072;&#1087;&#1086;&#1084;&#1085;&#1080;&#1090;&#1100; &#1082;&#1072;&#1082; &#1083;&#1091;&#1095;&#1096;&#1080;&#1081; &#1074;&#1072;&#1088;&#1080;&#1072;&#1085;&#1090;</text><polygon fill="#F1F1F1" points="100.355,1087.3633,358.769,1087.3633,370.769,1099.3633,358.769,1111.3633,100.355,1111.3633,88.355,1099.3633,100.355,1087.3633" style="stroke:#181818;stroke-width:0.5;stroke-linejoin:miter;stroke-miterlimit:10;"/><text fill="#000000" font-family="sans-serif" font-size="11" lengthAdjust="spacing" textLength="14.3462" x="233.562" y="1121.5737">&#1076;&#1072;</text><text fill="#000000" font-family="sans-serif" font-size="11" lengthAdjust="spacing" textLength="258.4141" x="100.355" y="1103.1714">&#1044;&#1083;&#1080;&#1085;&#1072; &#1074; &#1087;&#1088;&#1077;&#1076;&#1077;&#1083;&#1072;&#1093; +/-20% &#1080; &#1082;&#1072;&#1095;&#1077;&#1089;&#1090;&#1074;&#1086; &#1074;&#1099;&#1096;&#1077;?</text><polygon fill="#F1F1F1" points="229.562,1189.7344,241.562,1201.7344,229.562,1213.7344,217.562,1201.7344,229.562,1189.7344" style="stroke:#181818;stroke-width:0.5;stroke-linejoin:miter;stroke-miterlimit:10;"/><polygon fill="#F1F1F1" points="142.698,971.0234,316.426,971.0234,328.426,983.0234,316.426,995.0234,142.698,995.0234,130.698,983.0234,142.698,971.0234" style="stroke:#181818;stroke-width:0.5;stroke-linejoin:miter;stroke-miterlimit:10;"/><text fill="#000000" font-family="sans-serif" font-size="11" lengthAdjust="spacing" textLength="14.3462" x="233.562" y="1005.2339">&#1076;&#1072;</text><text fill="#000000" font-family="sans-serif" font-size="11" lengthAdjust="spacing" textLength="173.728" x="142.698" y="986.8315">&#1057;&#1083;&#1086;&#1090;&#1099; &#1079;&#1072;&#1087;&#1086;&#1083;&#1085;&#1077;&#1085;&#1099;, &#1090;&#1086;&#1095;&#1077;&#1082; = N?</text><polygon fill="#F1F1F1" points="229.562,1233.7344,241.562,1245.7344,229.562,1257.7344,217.562,1245.7344,229.562,1233.7344" style="stroke:#181818;stroke-width:0.5;stroke-linejoin:miter;stroke-miterlimit:10;"/><rect fill="#F1F1F1" height="33.9688" rx="12.5" ry="12.5" style="stroke:#181818;stroke-width:0.5;" width="261.6465" x="98.7388" y="713.2422"/><text fill="#000000" font-family="sans-serif" font-size="12" lengthAdjust="spacing" textLength="241.6465" x="108.7388" y="734.3809">&#1042;&#1079;&#1103;&#1090;&#1100; &#1086;&#1095;&#1077;&#1088;&#1077;&#1076;&#1085;&#1091;&#1102; &#1082;&#1086;&#1085;&#1077;&#1095;&#1085;&#1091;&#1102; &#1090;&#1086;&#1095;&#1082;&#1091; end</text><polygon fill="#F1F1F1" points="151.5522,1277.7344,307.5718,1277.7344,319.5718,1289.7344,307.5718,1301.7344,151.5522,1301.7344,139.5522,1289.7344,151.5522,1277.7344" style="stroke:#181818;stroke-width:0.5;stroke-linejoin:miter;stroke-miterlimit:10;"/><text fill="#000000" font-family="sans-serif" font-size="11" lengthAdjust="spacing" textLength="156.0195" x="151.5522" y="1293.5425">&#1045;&#1089;&#1090;&#1100; &#1077;&#1097;&#1105; &#1082;&#1086;&#1085;&#1077;&#1095;&#1085;&#1099;&#1077; &#1090;&#1086;&#1095;&#1082;&#1080;?</text><text fill="#000000" font-family="sans-serif" font-size="11" lengthAdjust="spacing" textLength="14.3462" x="319.5718" y="1287.1401">&#1076;&#1072;</text><polygon fill="#F1F1F1" points="138.4656,1343.1333,320.6584,1343.1333,332.6584,1355.1333,320.6584,1367.1333,138.4656,1367.1333,126.4656,1355.1333,138.4656,1343.1333" style="stroke:#181818;stroke-width:0.5;stroke-linejoin:miter;stroke-miterlimit:10;"/><text fill="#000000" font-family="sans-serif" font-size="11" lengthAdjust="spacing" textLength="182.1929" x="138.4656" y="1358.9414">&#1053;&#1072;&#1081;&#1076;&#1077;&#1085; &#1087;&#1086;&#1076;&#1093;&#1086;&#1076;&#1103;&#1097;&#1080;&#1081; &#1084;&#1072;&#1088;&#1096;&#1088;&#1091;&#1090;?</text><text fill="#000000" font-family="sans-serif" font-size="11" lengthAdjust="spacing" textLength="14.3462" x="112.1194" y="1352.5391">&#1076;&#1072;</text><text fill="#000000" font-family="sans-serif" font-size="11" lengthAdjust="spacing" textLength="20.3672" x="332.6584" y="1352.5391">&#1085;&#1077;&#1090;</text><rect fill="#F1F1F1" height="33.9688" rx="12.5" ry="12.5" style="stroke:#181818;stroke-width:0.5;" width="180.3418" x="26.2947" y="1377.1333"/><text fill="#000000" font-family="sans-serif" font-size="12" lengthAdjust="spacing" textLength="160.3418" x="36.2947" y="1398.272">&#1042;&#1077;&#1088;&#1085;&#1091;&#1090;&#1100; &#1083;&#1091;&#1095;&#1096;&#1080;&#1081; &#1074;&#1072;&#1088;&#1080;&#1072;&#1085;&#1090;</text><rect fill="#F1F1F1" height="61.9063" rx="12.5" ry="12.5" style="stroke:#181818;stroke-width:0.5;" width="213.6816" x="235.8176" y="1377.1333"/><text fill="#000000" font-family="sans-serif" font-size="12" lengthAdjust="spacing" textLength="149.373" x="245.8176" y="1398.272">&#1056;&#1077;&#1079;&#1077;&#1088;&#1074;&#1085;&#1072;&#1103; &#1089;&#1090;&#1088;&#1072;&#1090;&#1077;&#1075;&#1080;&#1103; &#8212;</text><text fill="#000000" font-family="sans-serif" font-size="12" lengthAdjust="spacing" textLength="193.6816" x="245.8176" y="1412.2407">&#1088;&#1072;&#1074;&#1085;&#1086;&#1084;&#1077;&#1088;&#1085;&#1072;&#1103; &#1074;&#1099;&#1073;&#1086;&#1088;&#1082;&#1072; N &#1090;&#1086;&#1095;&#1077;&#1082;</text><text fill="#000000" font-family="sans-serif" font-size="12" lengthAdjust="spacing" textLength="147.2285" x="245.8176" y="1426.2095">(_fallback_even_sample)</text><polygon fill="#F1F1F1" points="229.562,1445.0396,241.562,1457.0396,229.562,1469.0396,217.562,1457.0396,229.562,1445.0396" style="stroke:#181818;stroke-width:0.5;stroke-linejoin:miter;stroke-miterlimit:10;"/><rect fill="#F1F1F1" height="33.9688" rx="12.5" ry="12.5" style="stroke:#181818;stroke-width:0.5;" width="286.4023" x="86.3608" y="1489.0396"/><text fill="#000000" font-family="sans-serif" font-size="12" lengthAdjust="spacing" textLength="266.4023" x="96.3608" y="1510.1782">&#1042;&#1099;&#1093;&#1086;&#1076;: &#1091;&#1087;&#1086;&#1088;&#1103;&#1076;&#1086;&#1095;&#1077;&#1085;&#1085;&#1099;&#1081; &#1089;&#1087;&#1080;&#1089;&#1086;&#1082; &#1080;&#1079; N &#1090;&#1086;&#1095;&#1077;&#1082;</text><ellipse cx="229.562" cy="1554.0083" fill="none" rx="11" ry="11" style="stroke:#222222;stroke-width:1;"/><ellipse cx="229.562" cy="1554.0083" fill="#222222" rx="6" ry="6" style="stroke:#222222;stroke-width:1;"/><line style="stroke:#181818;stroke-width:1;" x1="229.562" x2="229.562" y1="72.2969" y2="92.2969"/><polygon fill="#181818" points="225.562,82.2969,229.562,92.2969,233.562,82.2969,229.562,86.2969" style="stroke:#181818;stroke-width:1;stroke-linejoin:miter;stroke-miterlimit:10;"/><line style="stroke:#181818;stroke-width:1;" x1="229.562" x2="229.562" y1="154.2031" y2="174.2031"/><polygon fill="#181818" points="225.562,164.2031,229.562,174.2031,233.562,164.2031,229.562,168.2031" style="stroke:#181818;stroke-width:1;stroke-linejoin:miter;stroke-miterlimit:10;"/><line style="stroke:#181818;stroke-width:1;" x1="229.562" x2="229.562" y1="222.1406" y2="242.1406"/><polygon fill="#181818" points="225.562,232.1406,229.562,242.1406,233.562,232.1406,229.562,236.1406" style="stroke:#181818;stroke-width:1;stroke-linejoin:miter;stroke-miterlimit:10;"/><line style="stroke:#181818;stroke-width:1;" x1="229.562" x2="229.562" y1="348.0469" y2="372.4492"/><polygon fill="#181818" points="225.562,362.4492,229.562,372.4492,233.562,362.4492,229.562,366.4492" style="stroke:#181818;stroke-width:1;stroke-linejoin:miter;stroke-miterlimit:10;"/><line style="stroke:#181818;stroke-width:1;" x1="287.1921" x2="384.562" y1="336.0469" y2="336.0469"/><polygon fill="#181818" points="380.562,386.418,384.562,396.418,388.562,386.418,384.562,390.418" style="stroke:#181818;stroke-width:1;stroke-linejoin:miter;stroke-miterlimit:10;"/><line style="stroke:#181818;stroke-width:1;" x1="384.562" x2="384.562" y1="336.0469" y2="452.3867"/><line style="stroke:#181818;stroke-width:1;" x1="384.562" x2="241.562" y1="452.3867" y2="452.3867"/><polygon fill="#181818" points="251.562,448.3867,241.562,452.3867,251.562,456.3867,247.562,452.3867" style="stroke:#181818;stroke-width:1;stroke-linejoin:miter;stroke-miterlimit:10;"/><line style="stroke:#181818;stroke-width:1;" x1="229.562" x2="229.562" y1="420.3867" y2="440.3867"/><polygon fill="#181818" points="225.562,430.3867,229.562,440.3867,233.562,430.3867,229.562,434.3867" style="stroke:#181818;stroke-width:1;stroke-linejoin:miter;stroke-miterlimit:10;"/><line style="stroke:#181818;stroke-width:1;" x1="229.562" x2="229.562" y1="304.0469" y2="324.0469"/><polygon fill="#181818" points="225.562,314.0469,229.562,324.0469,233.562,314.0469,229.562,318.0469" style="stroke:#181818;stroke-width:1;stroke-linejoin:miter;stroke-miterlimit:10;"/><line style="stroke:#181818;stroke-width:1;" x1="229.562" x2="229.562" y1="566.7578" y2="595.2734"/><polygon fill="#181818" points="225.562,585.2734,229.562,595.2734,233.562,585.2734,229.562,589.2734" style="stroke:#181818;stroke-width:1;stroke-linejoin:miter;stroke-miterlimit:10;"/><line style="stroke:#181818;stroke-width:1;" x1="229.562" x2="229.562" y1="508.3867" y2="532.7891"/><polygon fill="#181818" points="225.562,522.7891,229.562,532.7891,233.562,522.7891,229.562,526.7891" style="stroke:#181818;stroke-width:1;stroke-linejoin:miter;stroke-miterlimit:10;"/><line style="stroke:#181818;stroke-width:1;" x1="291.6448" x2="333.6147" y1="496.3867" y2="496.3867"/><polygon fill="#181818" points="329.6147,565.2734,333.6147,575.2734,337.6147,565.2734,333.6147,569.2734" style="stroke:#181818;stroke-width:1;stroke-linejoin:miter;stroke-miterlimit:10;"/><line style="stroke:#181818;stroke-width:1;" x1="333.6147" x2="333.6147" y1="496.3867" y2="639.2734"/><line style="stroke:#181818;stroke-width:1;" x1="333.6147" x2="229.562" y1="639.2734" y2="639.2734"/><line style="stroke:#181818;stroke-width:1;" x1="229.562" x2="229.562" y1="639.2734" y2="659.2734"/><polygon fill="#181818" points="225.562,649.2734,229.562,659.2734,233.562,649.2734,229.562,653.2734" style="stroke:#181818;stroke-width:1;stroke-linejoin:miter;stroke-miterlimit:10;"/><line style="stroke:#181818;stroke-width:1;" x1="229.562" x2="229.562" y1="464.3867" y2="484.3867"/><polygon fill="#181818" points="225.562,474.3867,229.562,484.3867,233.562,474.3867,229.562,478.3867" style="stroke:#181818;stroke-width:1;stroke-linejoin:miter;stroke-miterlimit:10;"/><line style="stroke:#181818;stroke-width:1;" x1="229.562" x2="229.562" y1="815.1484" y2="835.1484"/><polygon fill="#181818" points="225.562,825.1484,229.562,835.1484,233.562,825.1484,229.562,829.1484" style="stroke:#181818;stroke-width:1;stroke-linejoin:miter;stroke-miterlimit:10;"/><line style="stroke:#181818;stroke-width:1;" x1="229.562" x2="229.562" y1="869.1172" y2="889.1172"/><polygon fill="#181818" points="225.562,879.1172,229.562,889.1172,233.562,879.1172,229.562,883.1172" style="stroke:#181818;stroke-width:1;stroke-linejoin:miter;stroke-miterlimit:10;"/><line style="stroke:#181818;stroke-width:1;" x1="229.562" x2="229.562" y1="1111.3633" y2="1135.7656"/><polygon fill="#181818" points="225.562,1125.7656,229.562,1135.7656,233.562,1125.7656,229.562,1129.7656" style="stroke:#181818;stroke-width:1;stroke-linejoin:miter;stroke-miterlimit:10;"/><line style="stroke:#181818;stroke-width:1;" x1="370.769" x2="382.769" y1="1099.3633" y2="1099.3633"/><polygon fill="#181818" points="378.769,1142.75,382.769,1152.75,386.769,1142.75,382.769,1146.75" style="stroke:#181818;stroke-width:1;stroke-linejoin:miter;stroke-miterlimit:10;"/><line style="stroke:#181818;stroke-width:1;" x1="382.769" x2="382.769" y1="1099.3633" y2="1201.7344"/><line style="stroke:#181818;stroke-width:1;" x1="382.769" x2="241.562" y1="1201.7344" y2="1201.7344"/><polygon fill="#181818" points="251.562,1197.7344,241.562,1201.7344,251.562,1205.7344,247.562,1201.7344" style="stroke:#181818;stroke-width:1;stroke-linejoin:miter;stroke-miterlimit:10;"/><line style="stroke:#181818;stroke-width:1;" x1="229.562" x2="229.562" y1="1169.7344" y2="1189.7344"/><polygon fill="#181818" points="225.562,1179.7344,229.562,1189.7344,233.562,1179.7344,229.562,1183.7344" style="stroke:#181818;stroke-width:1;stroke-linejoin:miter;stroke-miterlimit:10;"/><line style="stroke:#181818;stroke-width:1;" x1="229.562" x2="229.562" y1="1067.3633" y2="1087.3633"/><polygon fill="#181818" points="225.562,1077.3633,229.562,1087.3633,233.562,1077.3633,229.562,1081.3633" style="stroke:#181818;stroke-width:1;stroke-linejoin:miter;stroke-miterlimit:10;"/><line style="stroke:#181818;stroke-width:1;" x1="229.562" x2="229.562" y1="995.0234" y2="1019.4258"/><polygon fill="#181818" points="225.562,1009.4258,229.562,1019.4258,233.562,1009.4258,229.562,1013.4258" style="stroke:#181818;stroke-width:1;stroke-linejoin:miter;stroke-miterlimit:10;"/><line style="stroke:#181818;stroke-width:1;" x1="328.426" x2="392.769" y1="983.0234" y2="983.0234"/><polygon fill="#181818" points="388.769,1101.2813,392.769,1111.2813,396.769,1101.2813,392.769,1105.2813" style="stroke:#181818;stroke-width:1;stroke-linejoin:miter;stroke-miterlimit:10;"/><line style="stroke:#181818;stroke-width:1;" x1="392.769" x2="392.769" y1="983.0234" y2="1245.7344"/><line style="stroke:#181818;stroke-width:1;" x1="392.769" x2="241.562" y1="1245.7344" y2="1245.7344"/><polygon fill="#181818" points="251.562,1241.7344,241.562,1245.7344,251.562,1249.7344,247.562,1245.7344" style="stroke:#181818;stroke-width:1;stroke-linejoin:miter;stroke-miterlimit:10;"/><line style="stroke:#181818;stroke-width:1;" x1="229.562" x2="229.562" y1="1213.7344" y2="1233.7344"/><polygon fill="#181818" points="225.562,1223.7344,229.562,1233.7344,233.562,1223.7344,229.562,1227.7344" style="stroke:#181818;stroke-width:1;stroke-linejoin:miter;stroke-miterlimit:10;"/><line style="stroke:#181818;stroke-width:1;" x1="229.562" x2="229.562" y1="951.0234" y2="971.0234"/><polygon fill="#181818" points="225.562,961.0234,229.562,971.0234,233.562,961.0234,229.562,965.0234" style="stroke:#181818;stroke-width:1;stroke-linejoin:miter;stroke-miterlimit:10;"/><line style="stroke:#181818;stroke-width:1;" x1="229.562" x2="229.562" y1="747.2109" y2="767.2109"/><polygon fill="#181818" points="225.562,757.2109,229.562,767.2109,233.562,757.2109,229.562,761.2109" style="stroke:#181818;stroke-width:1;stroke-linejoin:miter;stroke-miterlimit:10;"/><line style="stroke:#181818;stroke-width:1;" x1="319.5718" x2="416.769" y1="1289.7344" y2="1289.7344"/><polygon fill="#181818" points="412.769,1009.3828,416.769,999.3828,420.769,1009.3828,416.769,1005.3828" style="stroke:#181818;stroke-width:1;stroke-linejoin:miter;stroke-miterlimit:10;"/><line style="stroke:#181818;stroke-width:1;" x1="416.769" x2="416.769" y1="730.2266" y2="1289.7344"/><line style="stroke:#181818;stroke-width:1;" x1="416.769" x2="360.3853" y1="730.2266" y2="730.2266"/><polygon fill="#181818" points="370.3853,726.2266,360.3853,730.2266,370.3853,734.2266,366.3853,730.2266" style="stroke:#181818;stroke-width:1;stroke-linejoin:miter;stroke-miterlimit:10;"/><line style="stroke:#181818;stroke-width:1;" x1="229.562" x2="229.562" y1="1257.7344" y2="1277.7344"/><polygon fill="#181818" points="225.562,1267.7344,229.562,1277.7344,233.562,1267.7344,229.562,1271.7344" style="stroke:#181818;stroke-width:1;stroke-linejoin:miter;stroke-miterlimit:10;"/><line style="stroke:#181818;stroke-width:1;" x1="229.562" x2="229.562" y1="693.2422" y2="713.2422"/><polygon fill="#181818" points="225.562,703.2422,229.562,713.2422,233.562,703.2422,229.562,707.2422" style="stroke:#181818;stroke-width:1;stroke-linejoin:miter;stroke-miterlimit:10;"/><line style="stroke:#181818;stroke-width:1;" x1="126.4656" x2="116.4656" y1="1355.1333" y2="1355.1333"/><line style="stroke:#181818;stroke-width:1;" x1="116.4656" x2="116.4656" y1="1355.1333" y2="1377.1333"/><polygon fill="#181818" points="112.4656,1367.1333,116.4656,1377.1333,120.4656,1367.1333,116.4656,1371.1333" style="stroke:#181818;stroke-width:1;stroke-linejoin:miter;stroke-miterlimit:10;"/><line style="stroke:#181818;stroke-width:1;" x1="332.6584" x2="342.6584" y1="1355.1333" y2="1355.1333"/><line style="stroke:#181818;stroke-width:1;" x1="342.6584" x2="342.6584" y1="1355.1333" y2="1377.1333"/><polygon fill="#181818" points="338.6584,1367.1333,342.6584,1377.1333,346.6584,1367.1333,342.6584,1371.1333" style="stroke:#181818;stroke-width:1;stroke-linejoin:miter;stroke-miterlimit:10;"/><line style="stroke:#181818;stroke-width:1;" x1="116.4656" x2="116.4656" y1="1411.1021" y2="1457.0396"/><line style="stroke:#181818;stroke-width:1;" x1="116.4656" x2="217.562" y1="1457.0396" y2="1457.0396"/><polygon fill="#181818" points="207.562,1453.0396,217.562,1457.0396,207.562,1461.0396,211.562,1457.0396" style="stroke:#181818;stroke-width:1;stroke-linejoin:miter;stroke-miterlimit:10;"/><line style="stroke:#181818;stroke-width:1;" x1="342.6584" x2="342.6584" y1="1439.0396" y2="1457.0396"/><line style="stroke:#181818;stroke-width:1;" x1="342.6584" x2="241.562" y1="1457.0396" y2="1457.0396"/><polygon fill="#181818" points="251.562,1453.0396,241.562,1457.0396,251.562,1461.0396,247.562,1457.0396" style="stroke:#181818;stroke-width:1;stroke-linejoin:miter;stroke-miterlimit:10;"/><line style="stroke:#181818;stroke-width:1;" x1="229.562" x2="229.562" y1="1301.7344" y2="1343.1333"/><polygon fill="#181818" points="225.562,1333.1333,229.562,1343.1333,233.562,1333.1333,229.562,1337.1333" style="stroke:#181818;stroke-width:1;stroke-linejoin:miter;stroke-miterlimit:10;"/><text fill="#000000" font-family="sans-serif" font-size="11" lengthAdjust="spacing" textLength="20.3672" x="233.562" y="1323.0391">&#1085;&#1077;&#1090;</text><line style="stroke:#181818;stroke-width:1;" x1="229.562" x2="229.562" y1="1469.0396" y2="1489.0396"/><polygon fill="#181818" points="225.562,1479.0396,229.562,1489.0396,233.562,1479.0396,229.562,1483.0396" style="stroke:#181818;stroke-width:1;stroke-linejoin:miter;stroke-miterlimit:10;"/><line style="stroke:#181818;stroke-width:1;" x1="229.562" x2="229.562" y1="1523.0083" y2="1543.0083"/><polygon fill="#181818" points="225.562,1533.0083,229.562,1543.0083,233.562,1533.0083,229.562,1537.0083" style="stroke:#181818;stroke-width:1;stroke-linejoin:miter;stroke-miterlimit:10;"/><?plantuml-src XLLTRnD757tVNt5VAjd23gHLNsoLFbT2QV_1oaasPSNMTkrDgxxP3YHG1z8YAYGa43ptnOHii_w8aVW5Ct-1Nz9pxipOZR2e56SrktVcddFFlMVoDCyICN-OkNbdbdPWIZio2p7liHZQ4LuiJM6kyFfCpC9CxC0-nEy8KHFvyBTzZ6yNZ3QbkRAZkfcvK_0Ipm_pAEhdhLuUDSnJ-m1H5msSRO_CN7xu_hkQC8SUEf9ArifhadNQrLfaJv1m24nBmPwtzdTWc25oQSvb1xkEiPxZTuwzm7M11T83qPrQ10GJX1Q1ZobhJ0aYzZvMStlgbeN3RKyq60pDj1arUZ7W_fZayetSaPkolVLLL55EZ-rzxaVgak40ZDs5VUWIAIaSL5QRIdKCq0FYO3O0qYgnA1FFWdyu5kyBaBt2vYV2JrZCx95y73oBKA1L652JjF1GdeJu8Lul9E2DAd4_oPAzF4xQ-zrEsixxW98UICMyMEttC8UAeVYsAldTf8q8mAf68Wtp6lY6u5H2aRC0Vhsxidth2wdVbkslzV4bLbjRMznAkLtJd46K-RfbDd1lHe2O7WHm6sh3eemsm7kAzmCjriYf6BXCHGMzP6C1ArjgrCIMVjxf-coDtQIVnpyVjh8q_mtgrhURKI_f9grS3xuCVAb0uTl3oV8vdN1sKw6zSIs6g6DMZpo2_EUGgX1LaosgWtNAsLdtFeg9ap0j8fMSulkEDU-81873cdIJNjTzMcBVZCD1LDgvHRKPz3ENvYs7s75X9iswurhd71J6ze6uuGfwQ6sTLlzGIVJLAg0WWV-sCudOeQ3GHvWTzl-KcOuL2airPJyGVgcEeK0Ncr2N-b9XcfBKuzt3DDkFzpgzNhhVwSMzpc6UA3NjbJSEaXqBI4xKTERkC3kk1LLW551tvvFk8STN7gKlZxSDo4Wej8qJBVO8PLf-udPwHiKx3KZZlxF8KxcnAYwfkYOD7nM-9_1ivLFiyc12jB89DBbniyw9seW54h3K6rYHrtDVZSMQ6xMShKKgAH8xaeOueNqvM6usmjFFmwztKzm95VENfmSWZ-oVr-TWJ3FoSs1Au4hx0LNzjXjWRpylaM-gDA_K8So5kmWmS8yShck5_l-n_nod9EiJkUOFbWPVq0Ce3wyBVw-5Iu8sHRkLJIBgzQBzhvV9p4tIgjEqQGzQMRRRshiN9xyaxRZV-gcRiMczxV0o23SVx8aM2M_Lw_54cv6rd7BUtkkTjwHifRcybgSPqSd-1G00?></g></svg>